<?xml version="1.0" encoding="utf-8"?>
<!-- Generator: Adobe Illustrator 25.4.1, SVG Export Plug-In . SVG Version: 6.00 Build 0)  -->
<svg version="1.1" id="Layer_1" xmlns="http://www.w3.org/2000/svg" xmlns:xlink="http://www.w3.org/1999/xlink" x="0px" y="0px"
	 viewBox="0 0 560 117" style="enable-background:new 0 0 560 117;" xml:space="preserve">
<style type="text/css">
	.st0{fill:#2FACB8;}
	.st1{fill:#FFFFFF;}
</style>
<g>
	<g>
		<g>
			<path class="st0" d="M503.1,111.4H56.9C27.7,111.4,4,87.7,4,58.5l0,0C4,29.3,27.7,5.6,56.9,5.6h446.3c29.2,0,52.9,23.7,52.9,52.9
				l0,0C556.1,87.6,532.3,111.4,503.1,111.4z"/>
		</g>
	</g>
	<g>
		<path class="st1" d="M76,84.1c2.7,1.8,7.5,3.6,12.1,3.6c6.7,0,9.8-3.3,9.8-7.5c0-4.4-2.6-6.8-9.4-9.3c-9-3.2-13.3-8.2-13.3-14.2
			c0-8.1,6.6-14.8,17.4-14.8c5.1,0,9.6,1.5,12.4,3.1l-2.3,6.7c-2-1.2-5.6-2.9-10.3-2.9c-5.4,0-8.4,3.1-8.4,6.9c0,4.2,3,6,9.6,8.5
			c8.7,3.3,13.2,7.7,13.2,15.2c0,8.8-6.9,15.1-18.8,15.1c-5.5,0-10.6-1.4-14.1-3.4L76,84.1z"/>
		<path class="st1" d="M118.4,19.6h9.2V51h0.2c1.5-2.6,3.7-4.9,6.6-6.4c2.7-1.6,5.9-2.6,9.4-2.6c6.8,0,17.6,4.2,17.6,21.5v29.9h-9.2
			V64.5c0-8.1-3-15-11.6-15c-5.9,0-10.6,4.2-12.3,9.1c-0.5,1.2-0.6,2.6-0.6,4.4v30.4h-9.2V19.6z"/>
		<path class="st1" d="M221.6,67.8c0,18.6-12.9,26.7-25.1,26.7c-13.6,0-24.1-10-24.1-25.9c0-16.8,11-26.7,25-26.7
			C211.8,42,221.6,52.5,221.6,67.8z M181.7,68.4c0,11,6.3,19.3,15.3,19.3c8.7,0,15.3-8.2,15.3-19.5c0-8.5-4.3-19.3-15.1-19.3
			C186.4,48.8,181.7,58.8,181.7,68.4z"/>
		<path class="st1" d="M236.1,43.1l6.7,25.6c1.5,5.6,2.8,10.8,3.7,16h0.3c1.1-5.1,2.8-10.5,4.5-15.9l8.2-25.7h7.7l7.8,25.2
			c1.9,6,3.3,11.3,4.5,16.4h0.3c0.8-5.1,2.2-10.4,3.8-16.3l7.2-25.3h9l-16.2,50.3h-8.3l-7.7-24c-1.8-5.6-3.2-10.6-4.5-16.5h-0.2
			c-1.2,6-2.8,11.2-4.6,16.6l-8.1,23.9h-8.3l-15.2-50.3H236.1z"/>
		<path class="st1" d="M358.8,93.4l-0.7-6.3h-0.3c-2.8,4-8.2,7.5-15.4,7.5c-10.2,0-15.4-7.2-15.4-14.5c0-12.2,10.8-18.8,30.3-18.7
			v-1c0-4.2-1.1-11.6-11.4-11.6c-4.7,0-9.6,1.5-13.1,3.7l-2.1-6c4.2-2.7,10.2-4.5,16.5-4.5c15.4,0,19.1,10.5,19.1,20.6v18.8
			c0,4.4,0.2,8.6,0.8,12.1H358.8z M357.5,67.7c-10-0.2-21.3,1.6-21.3,11.3c0,5.9,4,8.7,8.6,8.7c6.5,0,10.7-4.2,12.2-8.4
			c0.3-0.9,0.5-2,0.5-2.9V67.7z"/>
		<path class="st1" d="M381.1,19.6h9.2v73.8h-9.2V19.6z"/>
		<path class="st1" d="M405.6,19.6h9.2v73.8h-9.2V19.6z"/>
	</g>
	<g>
		<circle class="st1" cx="500.4" cy="58.8" r="42"/>
		<g>
			<circle class="st0" cx="500.4" cy="58.8" r="12"/>
		</g>
		<g>
			<polyline class="st0" points="511.9,44.2 500.4,22.5 488.9,44.2 			"/>
		</g>
		<g>
			<polyline class="st0" points="511.9,73.4 500.4,95.1 488.9,73.4 			"/>
		</g>
		<g>
			<polyline class="st0" points="515,70.3 536.8,58.8 515,47.3 			"/>
		</g>
		<g>
			<polyline class="st0" points="485.8,47.3 464.1,58.8 485.8,70.3 			"/>
		</g>
	</g>
</g>
</svg>
