<?xml version="1.0" encoding="utf-8"?>
<!-- Generator: Adobe Illustrator 25.4.1, SVG Export Plug-In . SVG Version: 6.00 Build 0)  -->
<svg version="1.1" id="Layer_1" xmlns="http://www.w3.org/2000/svg" xmlns:xlink="http://www.w3.org/1999/xlink" x="0px" y="0px"
	 viewBox="0 0 560 155" style="enable-background:new 0 0 560 155;" xml:space="preserve">
<style type="text/css">
	.st0{fill:#2FACB8;}
	.st1{fill:#FFFFFF;}
</style>
<g>
	<g>
		<g>
			<path class="st0" d="M482.3,150.7H76.9c-40.4,0-73.1-32.7-73.1-73l0,0c0-40.4,32.7-73.1,73.1-73.1h405.4
				c40.4,0,73.1,32.7,73.1,73.1l0,0C555.5,117.8,522.7,150.7,482.3,150.7z"/>
		</g>
	</g>
	<g>
		<path class="st1" d="M124.8,74.5c0-5.1-0.1-9.4-0.4-13.5h8l0.5,8.2h0.2c2.5-4.7,8.2-9.4,16.4-9.4c6.9,0,17.6,4.1,17.6,21.2v29.7
			h-9V82.1c0-8-3-14.7-11.5-14.7c-6,0-10.6,4.2-12.1,9.2c-0.4,1.1-0.6,2.7-0.6,4.2v29.9h-9V74.5z"/>
		<path class="st1" d="M226.8,85.5c0,18.4-12.7,26.4-24.8,26.4c-13.5,0-23.8-9.9-23.8-25.6c0-16.6,10.9-26.4,24.7-26.4
			C217.1,59.9,226.8,70.3,226.8,85.5z M187.3,86c0,10.9,6.3,19.1,15.1,19.1c8.6,0,15.1-8.1,15.1-19.3c0-8.4-4.2-19.1-14.9-19.1
			S187.3,76.5,187.3,86z"/>
		<path class="st1" d="M238.2,76.5c0-5.9-0.1-10.9-0.4-15.5h7.9l0.3,9.8h0.4c2.3-6.7,7.7-10.9,13.8-10.9c1,0,1.7,0.1,2.6,0.3v8.5
			c-0.9-0.2-1.9-0.3-3.1-0.3c-6.4,0-10.9,4.8-12.1,11.6c-0.2,1.2-0.4,2.7-0.4,4.2v26.5h-8.9V76.5z"/>
		<path class="st1" d="M285.2,46.7V61h12.9v6.9h-12.9v26.8c0,6.2,1.7,9.7,6.8,9.7c2.4,0,4.1-0.3,5.2-0.6l0.4,6.8
			c-1.7,0.7-4.5,1.2-8,1.2c-4.2,0-7.6-1.3-9.8-3.8c-2.6-2.7-3.5-7.1-3.5-12.9V67.9h-7.7V61h7.7V49.1L285.2,46.7z"/>
		<path class="st1" d="M308.3,37.8h9v31h0.2c1.4-2.6,3.7-4.8,6.5-6.4c2.7-1.5,5.9-2.6,9.2-2.6c6.7,0,17.4,4.1,17.4,21.3v29.6h-9
			V82.2c0-8-3-14.8-11.5-14.8c-5.9,0-10.5,4.1-12.1,9c-0.5,1.2-0.6,2.6-0.6,4.3v30h-9V37.8z"/>
	</g>
	<circle class="st1" cx="478.6" cy="78.1" r="58.1"/>
	<g>
		<circle class="st0" cx="478.6" cy="78.1" r="16.6"/>
	</g>
	<g>
		<polyline class="st0" points="494.5,57.9 478.6,27.9 462.7,57.9 		"/>
	</g>
</g>
</svg>
