<?xml version="1.0" encoding="utf-8"?>
<!-- Generator: Adobe Illustrator 25.4.1, SVG Export Plug-In . SVG Version: 6.00 Build 0)  -->
<svg version="1.1" id="Layer_1" xmlns="http://www.w3.org/2000/svg" xmlns:xlink="http://www.w3.org/1999/xlink" x="0px" y="0px"
	 viewBox="0 0 560 117" style="enable-background:new 0 0 560 117;" xml:space="preserve">
<style type="text/css">
	.st0{fill:#2FACB8;}
	.st1{fill:#FFFFFF;}
</style>
<g>
	<g>
		<g>
			<path class="st0" d="M503.1,111.4H56.9C27.7,111.4,4,87.7,4,58.5l0,0C4,29.3,27.7,5.6,56.9,5.6h446.3c29.2,0,52.9,23.7,52.9,52.9
				l0,0C556.1,87.6,532.3,111.4,503.1,111.4z"/>
		</g>
	</g>
	<g>
		<g>
			<path class="st1" d="M152,91.6c-2.4,1.2-7.7,2.9-14.5,2.9c-15.2,0-25.1-10.3-25.1-25.7c0-15.5,10.6-26.7,27-26.7
				c5.4,0,10.2,1.4,12.7,2.6l-2.1,7.1c-2.2-1.2-5.6-2.4-10.6-2.4c-11.5,0-17.8,8.5-17.8,19c0,11.6,7.5,18.8,17.5,18.8
				c5.2,0,8.6-1.4,11.2-2.5L152,91.6z"/>
			<path class="st1" d="M167.1,69.9c0.2,12.4,8.1,17.5,17.3,17.5c6.5,0,10.5-1.1,13.9-2.6l1.6,6.6c-3.2,1.5-8.7,3.1-16.7,3.1
				c-15.5,0-24.7-10.2-24.7-25.4S167.3,42,182,42c16.4,0,20.8,14.5,20.8,23.7c0,1.9-0.2,3.3-0.3,4.3H167.1z M194,63.4
				c0.1-5.8-2.4-14.9-12.7-14.9c-9.3,0-13.3,8.5-14,14.9H194z"/>
			<path class="st1" d="M214.1,56.7c0-5.2-0.1-9.5-0.4-13.6h8.1l0.5,8.3h0.2c2.5-4.8,8.3-9.5,16.6-9.5c7,0,17.8,4.2,17.8,21.4v30.1
				h-9.2v-29c0-8.1-3-14.9-11.6-14.9c-6,0-10.7,4.3-12.3,9.4c-0.4,1.1-0.6,2.7-0.6,4.3v30.3h-9.2V56.7z"/>
			<path class="st1" d="M282.4,28.6v14.5h13.1v7h-13.1v27.1c0,6.2,1.8,9.8,6.9,9.8c2.4,0,4.2-0.3,5.3-0.6l0.4,6.9
				c-1.8,0.7-4.6,1.2-8.1,1.2c-4.3,0-7.7-1.4-9.9-3.8c-2.6-2.7-3.5-7.2-3.5-13.1V50.1h-7.8v-7h7.8V31L282.4,28.6z"/>
			<path class="st1" d="M310.3,69.9c0.2,12.4,8.1,17.5,17.3,17.5c6.6,0,10.5-1.1,13.9-2.6l1.6,6.6c-3.2,1.5-8.7,3.1-16.7,3.1
				c-15.5,0-24.7-10.2-24.7-25.4S310.5,42,325.2,42c16.4,0,20.8,14.5,20.8,23.7c0,1.9-0.2,3.3-0.3,4.3H310.3z M337.1,63.4
				c0.1-5.8-2.4-14.9-12.7-14.9c-9.3,0-13.3,8.5-14,14.9H337.1z"/>
			<path class="st1" d="M357.3,58.8c0-5.9-0.1-11-0.4-15.7h8l0.3,9.9h0.4c2.3-6.8,7.8-11,13.9-11c1,0,1.8,0.1,2.6,0.3v8.6
				c-0.9-0.2-1.9-0.3-3.1-0.3c-6.4,0-11,4.9-12.3,11.8c-0.2,1.2-0.4,2.7-0.4,4.3v26.8h-9V58.8z"/>
		</g>
	</g>
	<g>
		<circle class="st1" cx="500.4" cy="58.8" r="42"/>
		<g>
			<circle class="st0" cx="500.4" cy="58.8" r="12"/>
		</g>
	</g>
</g>
</svg>
