<?xml version="1.0" encoding="utf-8"?>
<!-- Generator: Adobe Illustrator 25.4.1, SVG Export Plug-In . SVG Version: 6.00 Build 0)  -->
<svg version="1.1" id="Layer_1" xmlns="http://www.w3.org/2000/svg" xmlns:xlink="http://www.w3.org/1999/xlink" x="0px" y="0px"
	 viewBox="0 0 560 117" style="enable-background:new 0 0 560 117;" xml:space="preserve">
<style type="text/css">
	.st0{fill:#2FACB8;}
	.st1{fill:#FFFFFF;}
</style>
<g>
	<g>
		<g>
			<path class="st0" d="M503.1,111.4H56.9C27.7,111.4,4,87.7,4,58.5l0,0C4,29.3,27.7,5.6,56.9,5.6h446.3c29.2,0,52.9,23.7,52.9,52.9
				l0,0C556.1,87.6,532.3,111.4,503.1,111.4z"/>
		</g>
	</g>
	<g>
		<g>
			<path class="st1" d="M128.6,84.1c2.7,1.8,7.5,3.6,12.1,3.6c6.7,0,9.8-3.3,9.8-7.5c0-4.4-2.6-6.8-9.4-9.3
				c-9-3.2-13.3-8.2-13.3-14.2c0-8.1,6.6-14.8,17.4-14.8c5.1,0,9.6,1.5,12.4,3.1l-2.3,6.7c-2-1.2-5.6-2.9-10.3-2.9
				c-5.4,0-8.4,3.1-8.4,6.9c0,4.2,3,6,9.6,8.5c8.7,3.3,13.2,7.7,13.2,15.2c0,8.8-6.9,15.1-18.8,15.1c-5.5,0-10.6-1.4-14.1-3.4
				L128.6,84.1z"/>
			<path class="st1" d="M216.6,67.8c0,18.6-12.9,26.7-25.1,26.7c-13.6,0-24.1-10-24.1-25.9c0-16.8,11-26.7,25-26.7
				C206.8,42,216.6,52.5,216.6,67.8z M176.7,68.4c0,11,6.3,19.3,15.3,19.3c8.7,0,15.3-8.2,15.3-19.5c0-8.5-4.3-19.3-15.1-19.3
				C181.3,48.8,176.7,58.8,176.7,68.4z"/>
			<path class="st1" d="M270.2,79.7c0,5.2,0.1,9.8,0.4,13.7h-8.1l-0.5-8.2h-0.2c-2.4,4.1-7.7,9.4-16.6,9.4c-7.9,0-17.4-4.4-17.4-22
				V43.1h9.1V71c0,9.6,2.9,16,11.2,16c6.1,0,10.4-4.3,12.1-8.3c0.5-1.4,0.8-3,0.8-4.7V43.1h9.1V79.7z"/>
			<path class="st1" d="M296.4,28.6v14.5h13.1v7h-13.1v27.1c0,6.2,1.8,9.8,6.9,9.8c2.4,0,4.2-0.3,5.3-0.6l0.4,6.9
				c-1.8,0.7-4.6,1.2-8.1,1.2c-4.3,0-7.7-1.4-9.9-3.8c-2.6-2.7-3.5-7.2-3.5-13.1V50.1h-7.8v-7h7.8V31L296.4,28.6z"/>
			<path class="st1" d="M319.8,19.6h9.2V51h0.2c1.5-2.6,3.7-4.9,6.6-6.4c2.7-1.6,5.9-2.6,9.4-2.6c6.8,0,17.6,4.2,17.6,21.5v29.9
				h-9.2V64.5c0-8.1-3-15-11.6-15c-5.9,0-10.6,4.2-12.3,9.1c-0.5,1.2-0.6,2.6-0.6,4.4v30.4h-9.2V19.6z"/>
		</g>
	</g>
	<g>
		<circle class="st1" cx="500.4" cy="58.8" r="42"/>
		<g>
			<polyline class="st0" points="511.9,73.4 500.4,95.1 488.9,73.4 			"/>
		</g>
	</g>
</g>
</svg>
