<?xml version="1.0" encoding="utf-8"?>
<!-- Generator: Adobe Illustrator 25.4.1, SVG Export Plug-In . SVG Version: 6.00 Build 0)  -->
<svg version="1.1" id="Layer_1" xmlns="http://www.w3.org/2000/svg" xmlns:xlink="http://www.w3.org/1999/xlink" x="0px" y="0px"
	 viewBox="0 0 560 155" style="enable-background:new 0 0 560 155;" xml:space="preserve">
<style type="text/css">
	.st0{fill:#2FACB8;}
	.st1{enable-background:new    ;}
	.st2{fill:#FFFFFF;}
</style>
<g>
	<g>
		<path class="st0" d="M482.7,150.6H77.3c-40.4,0-73.1-32.7-73.1-73.1l0,0c0-40.3,32.7-73,73.1-73h405.4c40.4,0,73.1,32.7,73.1,73
			l0,0C555.9,117.7,523,150.6,482.7,150.6z"/>
	</g>
	<g class="st1">
		<path class="st2" d="M51.2,101.4c2.7,1.7,7.4,3.6,11.9,3.6c6.6,0,9.7-3.3,9.7-7.4c0-4.3-2.6-6.7-9.2-9.1
			c-8.9-3.2-13.2-8.1-13.2-14.1c0-8,6.5-14.6,17.2-14.6c5,0,9.5,1.4,12.2,3.1l-2.3,6.6c-2-1.2-5.5-2.9-10.2-2.9
			c-5.3,0-8.3,3.1-8.3,6.8c0,4.1,3,6,9.5,8.4c8.6,3.3,13.1,7.6,13.1,15c0,8.7-6.8,14.9-18.6,14.9c-5.4,0-10.5-1.3-14-3.4L51.2,101.4
			z"/>
		<path class="st2" d="M93.1,37.6h9v31h0.2c1.4-2.6,3.7-4.8,6.5-6.4c2.7-1.5,5.9-2.6,9.2-2.6c6.7,0,17.4,4.1,17.4,21.3v29.6h-9V82
			c0-8-3-14.8-11.5-14.8c-5.9,0-10.5,4.1-12.1,9c-0.5,1.2-0.6,2.6-0.6,4.3v30h-9V37.6z"/>
		<path class="st2" d="M195.1,85.3c0,18.4-12.7,26.4-24.8,26.4c-13.5,0-23.8-9.9-23.8-25.6c0-16.6,10.9-26.4,24.7-26.4
			C185.5,59.7,195.1,70.1,195.1,85.3z M155.7,85.8c0,10.9,6.3,19.1,15.1,19.1c8.6,0,15.1-8.1,15.1-19.3c0-8.4-4.2-19.1-14.9-19.1
			C160.3,66.5,155.7,76.4,155.7,85.8z"/>
		<path class="st2" d="M209.4,60.9l6.6,25.3c1.4,5.5,2.8,10.7,3.7,15.8h0.3c1.1-5,2.8-10.4,4.4-15.7l8.1-25.4h7.6l7.7,24.9
			c1.8,6,3.3,11.2,4.4,16.2h0.3c0.8-5,2.2-10.3,3.8-16.1l7.1-25h8.9l-16,49.7h-8.2l-7.6-23.7c-1.7-5.5-3.2-10.5-4.4-16.3h-0.2
			c-1.2,6-2.8,11.1-4.5,16.4l-8,23.6h-8.2l-15-49.7H209.4z"/>
		<path class="st2" d="M330.8,110.6l-0.7-6.3h-0.3c-2.8,3.9-8.1,7.4-15.2,7.4c-10.1,0-15.2-7.1-15.2-14.3c0-12,10.7-18.6,29.9-18.5
			v-1c0-4.1-1.1-11.5-11.3-11.5c-4.6,0-9.5,1.4-12.9,3.7l-2.1-6c4.1-2.7,10.1-4.4,16.3-4.4c15.2,0,18.9,10.4,18.9,20.3v18.6
			c0,4.3,0.2,8.5,0.8,11.9H330.8z M329.4,85.2c-9.9-0.2-21.1,1.5-21.1,11.2c0,5.9,3.9,8.6,8.5,8.6c6.5,0,10.6-4.1,12-8.3
			c0.3-0.9,0.5-2,0.5-2.9V85.2z"/>
		<path class="st2" d="M352.8,37.6h9v73h-9V37.6z"/>
		<path class="st2" d="M377,37.6h9v73h-9V37.6z"/>
	</g>
	<ellipse transform="matrix(0.7071 -0.7071 0.7071 0.7071 85.2122 361.5205)" class="st2" cx="479" cy="77.9" rx="58.1" ry="58.1"/>
	<g>
		<circle class="st0" cx="479" cy="77.9" r="16.6"/>
	</g>
	<g>
		<polyline class="st0" points="494.9,57.7 479,27.7 463.1,57.7 		"/>
	</g>
	<g>
		<polyline class="st0" points="494.9,98.1 479,128.1 463.1,98.1 		"/>
	</g>
	<g>
		<polyline class="st0" points="499.2,93.8 529.2,77.9 499.2,62 		"/>
	</g>
	<g>
		<polyline class="st0" points="458.8,62 428.8,77.9 458.8,93.8 		"/>
	</g>
</g>
</svg>
