<?xml version="1.0" encoding="utf-8"?>
<!-- Generator: Adobe Illustrator 25.4.1, SVG Export Plug-In . SVG Version: 6.00 Build 0)  -->
<svg version="1.1" id="Layer_1" xmlns="http://www.w3.org/2000/svg" xmlns:xlink="http://www.w3.org/1999/xlink" x="0px" y="0px"
	 viewBox="0 0 417.7 117" style="enable-background:new 0 0 417.7 117;" xml:space="preserve">
<style type="text/css">
	.st0{fill:#7CCFD3;}
	.st1{fill:#FFFFFF;}
	.st2{fill:none;stroke:url(#SVGID_1_);stroke-width:6;stroke-linecap:round;stroke-linejoin:round;stroke-miterlimit:10;}
</style>
<g>
	<g>
		<g>
			<g>
				<path class="st0" d="M60.5,111.4h296.7c29.2,0,52.9-23.7,52.9-52.9l0,0c0-29.2-23.7-52.9-52.9-52.9H60.5
					C31.3,5.6,7.6,29.3,7.6,58.5l0,0C7.5,87.6,31.3,111.4,60.5,111.4z"/>
			</g>
		</g>
	</g>
	<g>
		<path class="st1" d="M177.7,62.1c0.1,7.7,5,10.9,10.7,10.9c4.1,0,6.5-0.7,8.7-1.6l1,4.1c-2,0.9-5.4,1.9-10.4,1.9
			c-9.6,0-15.4-6.3-15.4-15.8c0-9.4,5.6-16.9,14.7-16.9c10.2,0,12.9,9,12.9,14.7c0,1.2-0.1,2.1-0.2,2.7H177.7z M194.4,58.1
			c0.1-3.6-1.5-9.2-7.9-9.2c-5.8,0-8.3,5.3-8.7,9.2H194.4z"/>
		<path class="st1" d="M207,53.9c0-3.2-0.1-5.9-0.3-8.5h5l0.3,5.2h0.1c1.6-3,5.2-5.9,10.3-5.9c4.3,0,11.1,2.6,11.1,13.3v18.7h-5.7
			v-18c0-5-1.9-9.2-7.2-9.2c-3.8,0-6.7,2.7-7.6,5.8c-0.3,0.7-0.4,1.7-0.4,2.7v18.8H207V53.9z"/>
		<path class="st1" d="M269.9,30.8v37.8c0,2.8,0.1,5.9,0.3,8.1H265l-0.3-5.4h-0.1c-1.7,3.5-5.6,6.1-10.7,6.1
			c-7.6,0-13.4-6.4-13.4-15.9c-0.1-10.4,6.4-16.8,14-16.8c4.8,0,8,2.3,9.4,4.8h0.1V30.8H269.9z M264.2,58.2c0-0.7-0.1-1.7-0.3-2.4
			c-0.8-3.6-3.9-6.6-8.2-6.6c-5.9,0-9.4,5.2-9.4,12.1c0,6.3,3.1,11.6,9.2,11.6c3.8,0,7.3-2.5,8.3-6.8c0.2-0.8,0.3-1.6,0.3-2.5V58.2z
			"/>
		<path class="st1" d="M315.3,75.6c-1.5,0.8-4.8,1.8-9,1.8c-9.4,0-15.6-6.4-15.6-16c0-9.6,6.6-16.6,16.8-16.6c3.4,0,6.3,0.8,7.9,1.6
			l-1.3,4.4c-1.4-0.8-3.5-1.5-6.6-1.5c-7.2,0-11.1,5.3-11.1,11.8c0,7.2,4.7,11.7,10.9,11.7c3.2,0,5.4-0.8,7-1.6L315.3,75.6z"/>
		<path class="st1" d="M339.3,76.8l-0.5-3.9h-0.2c-1.7,2.5-5.1,4.7-9.6,4.7c-6.3,0-9.6-4.5-9.6-9c0-7.6,6.7-11.7,18.8-11.6v-0.6
			c0-2.6-0.7-7.2-7.1-7.2c-2.9,0-5.9,0.9-8.1,2.3l-1.3-3.8c2.6-1.7,6.3-2.8,10.3-2.8c9.6,0,11.9,6.5,11.9,12.8v11.7
			c0,2.7,0.1,5.4,0.5,7.5H339.3z M338.5,60.8c-6.2-0.1-13.3,1-13.3,7c0,3.7,2.5,5.4,5.4,5.4c4.1,0,6.7-2.6,7.6-5.2
			c0.2-0.6,0.3-1.2,0.3-1.8V60.8z"/>
		<path class="st1" d="M353.1,30.8h5.7v45.9h-5.7V30.8z"/>
		<path class="st1" d="M368.4,30.8h5.7v45.9h-5.7V30.8z"/>
	</g>
	<g id="vbdyjN.tif_00000181800736523152783970000013311329361300999584_">
		<g>
			<g>
				<linearGradient id="SVGID_1_" gradientUnits="userSpaceOnUse" x1="35.5671" y1="58.5" x2="382.1273" y2="58.5">
					<stop  offset="0" style="stop-color:#FFFFC6"/>
					<stop  offset="0.4956" style="stop-color:#E4E9ED"/>
					<stop  offset="0.6898" style="stop-color:#BFE0E4"/>
					<stop  offset="1" style="stop-color:#7CD0D4"/>
				</linearGradient>
				<path class="st2" d="M157.6,92c-3.2,2.6-6.9,1.9-12.7-1.7c-4-2.4-8-4.7-11.9-7.3c-5.6-3.6-7.1-7.5-5.8-14.1
					c1.7-8.3,0.8-10.7-7.1-14c-10.1-4.2-20.4-7.9-30.7-11.3c-6-2-9-0.8-11.9,4.9c-4.4,8.6-7.9,9.1-17.6,7.5
					c-5.2-0.9-10.2-2.2-15.3-3.4c-4.3-1-6.2-3.5-5.9-8.2c0.5-10,4.6-15.7,14.3-18.4c13.2-3.7,26.8-3.6,39.7,0.3
					c13.9,4.2,27.5,9.6,40.7,15.8c11.7,5.5,21,14.5,28.1,25.5c3,4.7,4.3,9.9,1.6,16.2h216.1"/>
			</g>
		</g>
	</g>
</g>
</svg>
