<?xml version="1.0" encoding="utf-8"?>
<!-- Generator: Adobe Illustrator 25.4.1, SVG Export Plug-In . SVG Version: 6.00 Build 0)  -->
<svg version="1.1" id="Layer_1" xmlns="http://www.w3.org/2000/svg" xmlns:xlink="http://www.w3.org/1999/xlink" x="0px" y="0px"
	 viewBox="0 0 560 155" style="enable-background:new 0 0 560 155;" xml:space="preserve">
<style type="text/css">
	.st0{fill:#2FACB8;}
	.st1{fill:#FFFFFF;}
</style>
<g>
	<g>
		<g>
			<path class="st0" d="M482.7,150.6H77.3c-40.4,0-73.1-32.7-73.1-73.1l0,0c0-40.3,32.7-73,73.1-73h405.4c40.4,0,73.1,32.7,73.1,73
				l0,0C555.9,117.7,523,150.6,482.7,150.6z"/>
		</g>
	</g>
	<g>
		<path class="st1" d="M121.8,101.4c2.7,1.7,7.4,3.6,11.9,3.6c6.6,0,9.7-3.3,9.7-7.4c0-4.3-2.6-6.7-9.2-9.1
			c-8.9-3.2-13.2-8.1-13.2-14.1c0-8,6.5-14.6,17.2-14.6c5,0,9.5,1.4,12.2,3.1l-2.3,6.6c-2-1.2-5.6-2.9-10.2-2.9
			c-5.3,0-8.3,3.1-8.3,6.8c0,4.1,3,6,9.5,8.4c8.6,3.3,13.1,7.6,13.1,15c0,8.7-6.8,14.9-18.6,14.9c-5.4,0-10.5-1.3-14-3.4
			L121.8,101.4z"/>
		<path class="st1" d="M208.7,85.3c0,18.4-12.7,26.4-24.8,26.4c-13.5,0-23.8-9.9-23.8-25.6c0-16.6,10.9-26.4,24.7-26.4
			C199,59.7,208.7,70.1,208.7,85.3z M169.2,85.8c0,10.9,6.3,19.1,15.1,19.1c8.6,0,15.1-8.1,15.1-19.3c0-8.4-4.2-19.1-14.9-19.1
			S169.2,76.4,169.2,85.8z"/>
		<path class="st1" d="M261.7,97c0,5.1,0.1,9.7,0.4,13.6h-8l-0.5-8.1h-0.2c-2.4,4-7.6,9.2-16.4,9.2c-7.8,0-17.2-4.3-17.2-21.8V60.9
			h9v27.5c0,9.5,2.9,15.8,11.1,15.8c6.1,0,10.3-4.2,11.9-8.2c0.5-1.3,0.8-3,0.8-4.6V60.9h9V97z"/>
		<path class="st1" d="M287.6,46.6v14.3h12.9v6.9h-12.9v26.8c0,6.2,1.7,9.7,6.8,9.7c2.4,0,4.1-0.3,5.2-0.6l0.4,6.8
			c-1.7,0.7-4.5,1.2-8,1.2c-4.2,0-7.6-1.3-9.8-3.8c-2.6-2.7-3.5-7.1-3.5-12.9V67.8h-7.7v-6.9h7.7V49L287.6,46.6z"/>
		<path class="st1" d="M310.7,37.6h9v31h0.2c1.4-2.6,3.7-4.8,6.5-6.4c2.7-1.5,5.9-2.6,9.2-2.6c6.7,0,17.4,4.1,17.4,21.3v29.6h-9V82
			c0-8-3-14.8-11.5-14.8c-5.9,0-10.5,4.1-12.1,9c-0.5,1.2-0.6,2.6-0.6,4.3v30h-9V37.6z"/>
	</g>
	<circle class="st1" cx="479" cy="77.9" r="58.1"/>
	<g>
		<circle class="st0" cx="479" cy="77.9" r="16.6"/>
	</g>
	<g>
		<polyline class="st0" points="494.9,98.1 479,128.1 463.1,98.1 		"/>
	</g>
</g>
</svg>
