<?xml version="1.0" encoding="utf-8"?>
<!-- Generator: Adobe Illustrator 25.4.1, SVG Export Plug-In . SVG Version: 6.00 Build 0)  -->
<svg version="1.1" id="Layer_1" xmlns="http://www.w3.org/2000/svg" xmlns:xlink="http://www.w3.org/1999/xlink" x="0px" y="0px"
	 viewBox="0 0 560 117" style="enable-background:new 0 0 560 117;" xml:space="preserve">
<style type="text/css">
	.st0{fill:#2FACB8;}
	.st1{fill:#FFFFFF;}
</style>
<g>
	<g>
		<g>
			<path class="st0" d="M503.1,111.4H56.9C27.7,111.4,4,87.7,4,58.5l0,0C4,29.3,27.7,5.6,56.9,5.6h446.3c29.2,0,52.9,23.7,52.9,52.9
				l0,0C556.1,87.6,532.3,111.4,503.1,111.4z"/>
		</g>
	</g>
	<g>
		<g>
			<path class="st1" d="M132,56.7c0-5.2-0.1-9.5-0.4-13.6h8.1l0.5,8.3h0.2c2.5-4.8,8.3-9.5,16.6-9.5c7,0,17.8,4.2,17.8,21.4v30h-9.2
				v-29c0-8.1-3-14.9-11.6-14.9c-6,0-10.7,4.3-12.3,9.4c-0.4,1.1-0.6,2.7-0.6,4.3v30.3H132V56.7z"/>
			<path class="st1" d="M235.2,67.8c0,18.6-12.9,26.7-25.1,26.7c-13.6,0-24.1-10-24.1-25.9c0-16.8,11-26.7,25-26.7
				C225.5,42,235.2,52.5,235.2,67.8z M195.3,68.4c0,11,6.3,19.3,15.3,19.3c8.7,0,15.3-8.2,15.3-19.5c0-8.5-4.3-19.3-15.1-19.3
				C200,48.8,195.3,58.8,195.3,68.4z"/>
			<path class="st1" d="M246.8,58.8c0-5.9-0.1-11-0.4-15.7h8l0.3,9.9h0.4c2.3-6.8,7.8-11,13.9-11c1,0,1.8,0.1,2.6,0.3v8.6
				c-0.9-0.2-1.9-0.3-3.1-0.3c-6.4,0-11,4.9-12.3,11.7c-0.2,1.2-0.4,2.7-0.4,4.3v26.8h-9V58.8z"/>
			<path class="st1" d="M294.3,28.6v14.5h13.1v7h-13.1v27.1c0,6.2,1.8,9.8,6.9,9.8c2.4,0,4.2-0.3,5.3-0.6l0.4,6.9
				c-1.8,0.7-4.6,1.2-8.1,1.2c-4.3,0-7.7-1.4-9.9-3.8c-2.6-2.7-3.5-7.2-3.5-13.1V50.1h-7.8v-7h7.8V31L294.3,28.6z"/>
			<path class="st1" d="M317.7,19.6h9.2V51h0.2c1.5-2.6,3.7-4.9,6.6-6.4c2.7-1.6,5.9-2.6,9.4-2.6c6.8,0,17.6,4.2,17.6,21.5v29.9
				h-9.2V64.5c0-8.1-3-15-11.6-15c-5.9,0-10.6,4.2-12.3,9.1c-0.5,1.2-0.6,2.6-0.6,4.4v30.4h-9.2V19.6z"/>
		</g>
	</g>
	<g>
		<circle class="st1" cx="500.4" cy="58.8" r="42"/>
		<g>
			<polyline class="st0" points="511.9,44.2 500.4,22.5 488.9,44.2 			"/>
		</g>
	</g>
</g>
</svg>
