<?xml version="1.0" encoding="utf-8"?>
<!-- Generator: Adobe Illustrator 25.4.1, SVG Export Plug-In . SVG Version: 6.00 Build 0)  -->
<svg version="1.1" id="Layer_1" xmlns="http://www.w3.org/2000/svg" xmlns:xlink="http://www.w3.org/1999/xlink" x="0px" y="0px"
	 viewBox="0 0 560 117" style="enable-background:new 0 0 560 117;" xml:space="preserve">
<style type="text/css">
	.st0{fill:#2FACB8;}
	.st1{fill:#FFFFFF;}
</style>
<g>
	<g>
		<g>
			<path class="st0" d="M503.1,111.4H56.9C27.7,111.4,4,87.7,4,58.5l0,0C4,29.3,27.7,5.6,56.9,5.6h446.3c29.2,0,52.9,23.7,52.9,52.9
				l0,0C556.1,87.6,532.3,111.4,503.1,111.4z"/>
		</g>
	</g>
	<g>
		<g>
			<path class="st1" d="M155.8,43.1l6.7,25.6c1.5,5.6,2.8,10.8,3.7,16h0.3c1.1-5.1,2.8-10.5,4.5-15.9l8.2-25.7h7.7l7.8,25.2
				c1.9,6,3.3,11.3,4.5,16.4h0.3c0.8-5.1,2.2-10.4,3.8-16.3l7.2-25.3h9l-16.2,50.3H195l-7.7-24c-1.8-5.6-3.2-10.6-4.5-16.5h-0.2
				c-1.2,6-2.8,11.2-4.6,16.6l-8.1,23.9h-8.3l-15.2-50.3H155.8z"/>
			<path class="st1" d="M232.7,69.9c0.2,12.4,8.1,17.5,17.3,17.5c6.6,0,10.5-1.1,13.9-2.6l1.6,6.6c-3.2,1.5-8.7,3.1-16.7,3.1
				c-15.5,0-24.7-10.2-24.7-25.4S232.9,42,247.6,42c16.4,0,20.8,14.5,20.8,23.7c0,1.9-0.2,3.3-0.3,4.3H232.7z M259.5,63.4
				c0.1-5.8-2.4-14.9-12.7-14.9c-9.3,0-13.3,8.5-14,14.9H259.5z"/>
			<path class="st1" d="M278.4,84.1c2.7,1.8,7.5,3.6,12.1,3.6c6.7,0,9.8-3.3,9.8-7.5c0-4.4-2.6-6.8-9.4-9.3
				c-9-3.2-13.3-8.2-13.3-14.2c0-8.1,6.6-14.8,17.4-14.8c5.1,0,9.6,1.5,12.4,3.1l-2.3,6.7c-2-1.2-5.6-2.9-10.3-2.9
				c-5.4,0-8.4,3.1-8.4,6.9c0,4.2,3,6,9.6,8.5c8.7,3.3,13.2,7.7,13.2,15.2c0,8.8-6.9,15.1-18.8,15.1c-5.5,0-10.6-1.4-14.1-3.4
				L278.4,84.1z"/>
			<path class="st1" d="M331.9,28.6v14.5H345v7h-13.1v27.1c0,6.2,1.8,9.8,6.9,9.8c2.4,0,4.2-0.3,5.3-0.6l0.4,6.9
				c-1.8,0.7-4.6,1.2-8.1,1.2c-4.3,0-7.7-1.4-9.9-3.8c-2.6-2.7-3.5-7.2-3.5-13.1V50.1h-7.8v-7h7.8V31L331.9,28.6z"/>
		</g>
	</g>
	<g>
		<circle class="st1" cx="500.4" cy="58.8" r="42"/>
		<g>
			<polyline class="st0" points="485.8,47.3 464.1,58.8 485.8,70.3 			"/>
		</g>
	</g>
</g>
</svg>
