<?xml version="1.0" encoding="utf-8"?>
<!-- Generator: Adobe Illustrator 25.4.1, SVG Export Plug-In . SVG Version: 6.00 Build 0)  -->
<svg version="1.1" id="Layer_1" xmlns="http://www.w3.org/2000/svg" xmlns:xlink="http://www.w3.org/1999/xlink" x="0px" y="0px"
	 viewBox="0 0 560 117" style="enable-background:new 0 0 560 117;" xml:space="preserve">
<style type="text/css">
	.st0{fill:#2FACB8;}
	.st1{fill:#FFFFFF;}
</style>
<g>
	<g>
		<g>
			<path class="st0" d="M502.1,111.2H57.9c-29.1,0-52.7-23.6-52.7-52.7l0,0c0-29.1,23.6-52.7,52.7-52.7h444.3
				c29.1,0,52.7,23.6,52.7,52.7l0,0C554.9,87.5,531.2,111.2,502.1,111.2z"/>
		</g>
	</g>
	<g>
		<g>
			<path class="st1" d="M156.3,43.2l6.6,25.5c1.4,5.6,2.8,10.8,3.7,15.9h0.3c1.1-5.1,2.8-10.5,4.5-15.8l8.2-25.6h7.7l7.8,25
				c1.9,6,3.3,11.3,4.5,16.4h0.3c0.8-5.1,2.2-10.3,3.8-16.2l7.1-25.2h9l-16.1,50.1h-8.3l-7.7-23.9c-1.8-5.6-3.2-10.6-4.5-16.5H183
				c-1.2,6-2.8,11.2-4.6,16.6l-8.1,23.8h-8.3L147,43.2H156.3z"/>
			<path class="st1" d="M232.9,69.9c0.2,12.3,8.1,17.4,17.2,17.4c6.5,0,10.5-1.1,13.9-2.6l1.6,6.5c-3.2,1.4-8.7,3.1-16.7,3.1
				c-15.4,0-24.6-10.1-24.6-25.3c0-15.1,8.9-27,23.5-27c16.4,0,20.7,14.4,20.7,23.6c0,1.9-0.2,3.3-0.3,4.2H232.9z M259.6,63.4
				c0.1-5.8-2.4-14.8-12.6-14.8c-9.2,0-13.2,8.5-14,14.8H259.6z"/>
			<path class="st1" d="M278.4,84c2.7,1.8,7.5,3.6,12,3.6c6.6,0,9.7-3.3,9.7-7.5c0-4.3-2.6-6.7-9.3-9.2c-9-3.2-13.2-8.2-13.2-14.2
				c0-8.1,6.5-14.7,17.3-14.7c5.1,0,9.5,1.4,12.3,3.1l-2.3,6.6c-2-1.2-5.6-2.9-10.2-2.9c-5.4,0-8.4,3.1-8.4,6.8c0,4.1,3,6,9.5,8.5
				c8.7,3.3,13.1,7.7,13.1,15.1c0,8.8-6.8,15-18.7,15c-5.5,0-10.6-1.3-14.1-3.4L278.4,84z"/>
			<path class="st1" d="M331.6,28.8v14.4h13v6.9h-13v27c0,6.2,1.8,9.7,6.8,9.7c2.4,0,4.1-0.3,5.3-0.6l0.4,6.8
				c-1.8,0.7-4.6,1.2-8.1,1.2c-4.2,0-7.7-1.3-9.8-3.8c-2.6-2.7-3.5-7.1-3.5-13V50.1H315v-6.9h7.8v-12L331.6,28.8z"/>
		</g>
	</g>
	<g>
		<circle class="st1" cx="499.5" cy="58.8" r="41.9"/>
		<g>
			<polyline class="st0" points="484.9,47.3 463.3,58.8 484.9,70.3 			"/>
		</g>
	</g>
</g>
</svg>
