<?xml version="1.0" encoding="utf-8"?>
<!-- Generator: Adobe Illustrator 25.4.1, SVG Export Plug-In . SVG Version: 6.00 Build 0)  -->
<svg version="1.1" id="Layer_1" xmlns="http://www.w3.org/2000/svg" xmlns:xlink="http://www.w3.org/1999/xlink" x="0px" y="0px"
	 viewBox="0 0 560 155" style="enable-background:new 0 0 560 155;" xml:space="preserve">
<style type="text/css">
	.st0{fill:#2FACB8;}
	.st1{fill:#FFFFFF;}
</style>
<g>
	<g>
		<g>
			<path class="st0" d="M482.7,150.6H77.3c-40.4,0-73.1-32.7-73.1-73.1l0,0c0-40.3,32.7-73,73.1-73h405.4c40.4,0,73.1,32.7,73.1,73
				l0,0C555.9,117.7,523,150.6,482.7,150.6z"/>
		</g>
	</g>
	<g>
		<path class="st1" d="M144.8,108.8c-2.4,1.2-7.6,2.9-14.3,2.9c-15,0-24.8-10.2-24.8-25.4c0-15.3,10.5-26.4,26.7-26.4
			c5.3,0,10.1,1.3,12.5,2.6l-2.1,7c-2.2-1.2-5.5-2.4-10.5-2.4c-11.4,0-17.6,8.4-17.6,18.8c0,11.5,7.4,18.6,17.3,18.6
			c5.1,0,8.5-1.3,11.1-2.5L144.8,108.8z"/>
		<path class="st1" d="M159.8,87.4c0.2,12.2,8,17.3,17.1,17.3c6.5,0,10.4-1.1,13.8-2.6l1.5,6.5c-3.2,1.4-8.6,3.1-16.5,3.1
			c-15.3,0-24.5-10.1-24.5-25.1c0-15,8.8-26.8,23.3-26.8c16.2,0,20.6,14.3,20.6,23.4c0,1.9-0.2,3.3-0.3,4.2H159.8z M186.4,80.9
			c0.1-5.8-2.4-14.7-12.5-14.7c-9.1,0-13.2,8.4-13.9,14.7H186.4z"/>
		<path class="st1" d="M206.3,74.3c0-5.1-0.1-9.4-0.4-13.5h8l0.5,8.2h0.2c2.5-4.7,8.2-9.4,16.4-9.4c6.9,0,17.6,4.1,17.6,21.2v29.7
			h-9V81.9c0-8-3-14.7-11.5-14.7c-6,0-10.6,4.2-12.1,9.2c-0.4,1.1-0.6,2.7-0.6,4.2v29.9h-9V74.3z"/>
		<path class="st1" d="M273.8,46.6v14.3h12.9v6.9h-12.9v26.8c0,6.2,1.7,9.7,6.8,9.7c2.4,0,4.1-0.3,5.2-0.6l0.4,6.8
			c-1.7,0.7-4.5,1.2-8,1.2c-4.2,0-7.6-1.3-9.8-3.8c-2.6-2.7-3.5-7.1-3.5-12.9V67.8h-7.7v-6.9h7.7V49L273.8,46.6z"/>
		<path class="st1" d="M337.1,87.4c0.2,12.2,8,17.3,17.1,17.3c6.5,0,10.4-1.1,13.8-2.6l1.5,6.5c-3.2,1.4-8.6,3.1-16.5,3.1
			c-15.3,0-24.5-10.1-24.5-25.1c0-15,8.8-26.8,23.3-26.8c16.2,0,20.6,14.3,20.6,23.4c0,1.9-0.2,3.3-0.3,4.2H337.1z M363.6,80.9
			c0.1-5.8-2.4-14.7-12.5-14.7c-9.1,0-13.2,8.4-13.9,14.7H363.6z"/>
		<path class="st1" d="M299.1,76.4c0-5.9-0.1-10.9-0.4-15.5h7.9l0.3,9.8h0.4c2.3-6.7,7.7-10.9,13.8-10.9c1,0,1.7,0.1,2.6,0.3v8.5
			c-0.9-0.2-1.9-0.3-3.1-0.3c-6.4,0-10.9,4.8-12.1,11.6c-0.2,1.2-0.4,2.7-0.4,4.2v26.5h-8.9V76.4z"/>
	</g>
	<circle class="st1" cx="479" cy="77.9" r="58.1"/>
	<circle class="st0" cx="479" cy="77.9" r="16.6"/>
</g>
</svg>
