<?xml version="1.0" encoding="utf-8"?>
<!-- Generator: Adobe Illustrator 25.4.1, SVG Export Plug-In . SVG Version: 6.00 Build 0)  -->
<svg version="1.1" id="Layer_1" xmlns="http://www.w3.org/2000/svg" xmlns:xlink="http://www.w3.org/1999/xlink" x="0px" y="0px"
	 viewBox="0 0 560 155" style="enable-background:new 0 0 560 155;" xml:space="preserve">
<style type="text/css">
	.st0{fill:#2FACB8;}
	.st1{fill:#FFFFFF;}
</style>
<g>
	<g>
		<g>
			<path class="st0" d="M482.7,150.6H77.3c-40.4,0-73.1-32.7-73.1-73.1l0,0c0-40.3,32.7-73,73.1-73h405.4c40.4,0,73.1,32.7,73.1,73
				l0,0C555.9,117.7,523,150.6,482.7,150.6z"/>
		</g>
	</g>
	<g>
		<path class="st1" d="M148.6,60.9l6.6,25.3c1.4,5.5,2.8,10.7,3.7,15.8h0.3c1.1-5,2.8-10.4,4.4-15.7l8.1-25.4h7.6l7.7,24.9
			c1.9,6,3.3,11.2,4.4,16.2h0.3c0.8-5,2.2-10.3,3.8-16.1l7.1-25h8.9l-16,49.7h-8.2l-7.6-23.7c-1.7-5.6-3.2-10.5-4.4-16.3h-0.2
			c-1.2,6-2.8,11.1-4.5,16.4l-8,23.6h-8.2l-15-49.7H148.6z"/>
		<path class="st1" d="M224.6,87.4c0.2,12.2,8,17.3,17.1,17.3c6.5,0,10.4-1.1,13.8-2.6l1.5,6.5c-3.2,1.4-8.6,3.1-16.5,3.1
			c-15.3,0-24.5-10.1-24.5-25.1c0-15,8.8-26.8,23.3-26.8c16.2,0,20.6,14.3,20.6,23.4c0,1.9-0.2,3.3-0.3,4.2H224.6z M251.2,80.9
			c0.1-5.8-2.4-14.7-12.5-14.7c-9.1,0-13.2,8.4-13.9,14.7H251.2z"/>
		<path class="st1" d="M269.9,101.4c2.7,1.7,7.4,3.6,11.9,3.6c6.6,0,9.7-3.3,9.7-7.4c0-4.3-2.6-6.7-9.2-9.1
			c-8.9-3.2-13.2-8.1-13.2-14.1c0-8,6.5-14.6,17.2-14.6c5,0,9.5,1.4,12.2,3.1l-2.3,6.6c-2-1.2-5.6-2.9-10.2-2.9
			c-5.3,0-8.3,3.1-8.3,6.8c0,4.1,3,6,9.5,8.4c8.6,3.3,13.1,7.6,13.1,15c0,8.7-6.8,14.9-18.6,14.9c-5.4,0-10.5-1.3-14-3.4
			L269.9,101.4z"/>
		<path class="st1" d="M322.7,46.6v14.3h12.9v6.9h-12.9v26.8c0,6.2,1.7,9.7,6.8,9.7c2.4,0,4.1-0.3,5.2-0.6l0.4,6.8
			c-1.7,0.7-4.5,1.2-8,1.2c-4.2,0-7.6-1.3-9.8-3.8c-2.6-2.7-3.5-7.1-3.5-12.9V67.8h-7.7v-6.9h7.7V49L322.7,46.6z"/>
	</g>
	<circle class="st1" cx="479" cy="77.9" r="58.1"/>
	<g>
		<circle class="st0" cx="479" cy="77.9" r="16.6"/>
	</g>
	<g>
		<polyline class="st0" points="458.8,62 428.8,77.9 458.8,93.8 		"/>
	</g>
</g>
</svg>
