<?xml version="1.0" encoding="utf-8"?>
<!-- Generator: Adobe Illustrator 25.4.1, SVG Export Plug-In . SVG Version: 6.00 Build 0)  -->
<svg version="1.1" id="Layer_1" xmlns="http://www.w3.org/2000/svg" xmlns:xlink="http://www.w3.org/1999/xlink" x="0px" y="0px"
	 viewBox="0 0 420 420" style="enable-background:new 0 0 420 420;" xml:space="preserve">
<style type="text/css">
	.st0{fill:none;stroke:#A7A5AD;stroke-width:12;stroke-linecap:round;stroke-linejoin:round;stroke-miterlimit:10;}
	.st1{fill:none;stroke:#A7A5AD;stroke-width:7.3206;stroke-linecap:round;stroke-linejoin:round;stroke-miterlimit:10;}
	.st2{fill:none;stroke:#A7A5AD;stroke-width:6;stroke-linecap:round;stroke-linejoin:round;stroke-miterlimit:10;}
</style>
<g>
	<g>
		<circle class="st0" cx="211.3" cy="86.3" r="32.1"/>
		<g>
			<polyline class="st0" points="175,362.5 172.6,253.7 182.2,246.2 			"/>
			<line class="st0" x1="174" y1="169.7" x2="174.7" y2="226.6"/>
			<line class="st0" x1="241.5" y1="169.7" x2="241.6" y2="226.5"/>
		</g>
		<path class="st0" d="M157.3,242.3l-7.2-14.1c-11.1-21.8-12.3-47.2-3.4-69.9l0,0c6.4-16.4,22.2-27.2,39.8-27.2h46.1
			c17.6,0,33.4,10.8,39.8,27.2l0.3,0.7c8.7,22.4,7.7,47.3-2.9,68.9l-8,16.2"/>
	</g>
	<path class="st1" d="M262.8,258.9c1.2,11.4,1.9,25.6,1.9,40.9c0,37.9-4.4,68.7-9.8,68.7c-5.4,0-9.8-30.8-9.8-68.7
		s4.4-68.7,9.8-68.7"/>
	<path class="st2" d="M162.9,368.5c-5.4,0-9.8-30.8-9.8-68.7c0-16.6,0.8-31.8,2.2-43.7"/>
	<polyline class="st0" points="232.8,246.2 223.1,253.7 222.6,362.5 	"/>
	<polyline class="st0" points="207.9,246.9 198.2,254.3 198.2,362.5 	"/>
</g>
</svg>
