<?xml version="1.0" encoding="utf-8"?>
<!-- Generator: Adobe Illustrator 25.4.1, SVG Export Plug-In . SVG Version: 6.00 Build 0)  -->
<svg version="1.1" id="Layer_1" xmlns="http://www.w3.org/2000/svg" xmlns:xlink="http://www.w3.org/1999/xlink" x="0px" y="0px"
	 viewBox="0 0 420 420" style="enable-background:new 0 0 420 420;" xml:space="preserve">
<style type="text/css">
	.st0{fill:none;stroke:#A7A5AD;stroke-width:11.9998;stroke-linecap:round;stroke-linejoin:round;stroke-miterlimit:9.9998;}
	.st1{fill:none;stroke:#A7A5AD;stroke-width:12;stroke-linecap:round;stroke-linejoin:round;stroke-miterlimit:10;}
	.st2{fill:none;stroke:#E7B102;stroke-width:11.0912;stroke-linecap:round;stroke-linejoin:round;stroke-miterlimit:10;}
	.st3{fill:none;stroke:#FFFFFF;stroke-width:11.0912;stroke-linecap:round;stroke-linejoin:round;stroke-miterlimit:10;}
</style>
<g>
	
		<rect x="218.4" y="259.5" transform="matrix(0.7071 -0.7071 0.7071 0.7071 -109.2826 298.1369)" class="st0" width="173.7" height="43"/>
	
		<rect x="360.4" y="182.9" transform="matrix(0.7071 -0.7071 0.7071 0.7071 -32.6782 329.8654)" class="st0" width="42.9" height="43"/>
	<polygon class="st1" points="228.6,327.2 259,357.6 207.7,378.5 	"/>
</g>
<polyline class="st2" points="352.5,153 352.5,35 61,35 61,396.1 352.5,396.1 352.5,311 "/>
<line class="st3" x1="96" y1="74" x2="315" y2="74"/>
<line class="st3" x1="96" y1="113" x2="315" y2="113"/>
<line class="st3" x1="96" y1="152" x2="315" y2="152"/>
<line class="st3" x1="96" y1="191" x2="315" y2="191"/>
<line class="st3" x1="96" y1="230" x2="277" y2="230"/>
</svg>
