<?xml version="1.0" encoding="utf-8"?>
<!-- Generator: Adobe Illustrator 25.4.1, SVG Export Plug-In . SVG Version: 6.00 Build 0)  -->
<svg version="1.1" id="Layer_1" xmlns="http://www.w3.org/2000/svg" xmlns:xlink="http://www.w3.org/1999/xlink" x="0px" y="0px"
	 viewBox="0 0 420 420" style="enable-background:new 0 0 420 420;" xml:space="preserve">
<style type="text/css">
	.st0{fill:none;}
	.st1{fill:none;stroke:#A6A4AD;stroke-width:6;stroke-linecap:round;stroke-linejoin:round;stroke-miterlimit:10;}
	.st2{fill:none;stroke:#F0AD00;stroke-width:12;stroke-linecap:round;stroke-linejoin:round;stroke-miterlimit:10;}
</style>
<g>
	<path class="st0" d="M47.5,358c-0.6,0.9-1.3,1.7-1.9,2.6c-0.4,0.7-0.5,1.7-0.7,2.6c1,0,2.1,0.4,2.9,0.1c1-0.4,2-0.9,2.9-1.3
		C49.7,360.6,48.6,359.3,47.5,358z"/>
	<path class="st1" d="M223.1,35.6c23.7,0.7,46.2,5.8,66.8,14.6"/>
	<path class="st1" d="M185.8,72.1c10.2-2.2,20.9-3.3,31.8-3.3c48.7,0,92,22.9,119.8,58.5"/>
	<path class="st1" d="M323.4,329.7c-27.4,26.6-64.7,43-105.9,43c-57.2,0-107-31.6-132.9-78.3"/>
	<path class="st1" d="M75.9,340.2c23.9,28.4,56.3,49.4,93.1,59.4"/>
	<path class="st1" d="M312.2,292.2c15-19.9,23.9-44.6,23.9-71.5c0-65.5-53.1-118.6-118.6-118.6c-17.4,0-33.9,3.7-48.8,10.5
		 M109.8,172.9c-0.5,0.4-0.9,0.8-1.4,1.2c-6.1,14.3-9.5,30.1-9.5,46.6c0,65.5,53.1,118.6,118.6,118.6c36.8,0,69.6-16.7,91.4-43
		 M217.5,135.4c47.1,0,85.4,38.2,85.4,85.4s-38.2,85.4-85.4,85.4s-85.4-38.2-85.4-85.4S170.4,135.4,217.5,135.4z"/>
	<path class="st1" d="M217.5,168.7c28.8,0,52.1,23.3,52.1,52.1c0,28.8-23.3,52.1-52.1,52.1c-28.8,0-52.1-23.3-52.1-52.1
		C165.4,192,188.8,168.7,217.5,168.7z"/>
	<path class="st1" d="M217.5,202c10.4,0,18.8,8.4,18.8,18.8c0,10.4-8.4,18.8-18.8,18.8c-10.4,0-18.8-8.4-18.8-18.8
		C198.7,210.4,207.1,202,217.5,202z"/>
</g>
<g>
	<g id="e0cNI3.tif">
		<g>
			<g>
				<path class="st2" d="M332.5,129.1c0.7,1.4,1.2,2.2,1.5,3.1c0.4,1.5,1.1,3,1,4.5c-0.3,2.3,0.2,4,2.1,5.4c2.1,1.6,4,3.4,6.3,5.4
					c0.8-1.9,1.1-3.3,1.8-4.3c0.5-0.7,1.7-1.5,2.3-1.3c0.8,0.3,1.5,1.4,2,2.2c0.3,0.5,0,1.3,0,1.9c-0.2,2,0.4,3.5,1.8,5.1
					c1.3,1.5,2.3,3.8,2.4,5.7c0.2,5.3,2,9.3,6.7,12.3c4.7,2.9,6.4,8.2,9,12.8c0.8,1.4,2.1,2.8,3.5,3.7c1.6,1,1.9,2.2,1.5,3.8
					c-0.9,3.5-3.3,5.8-6.3,7.6c-4.2,2.3-4.2,5.2,0,7.6c2,1.2,2.7,2.7,2.4,4.9c-0.2,1.4-0.2,2.9-0.6,4.2c-1.3,4.4-1.6,8.6,0.3,13
					c0.5,1.2,0.5,2.8,0.4,4.2c-0.4,4.7-1.7,5.7-6.4,4.9c-3.6-0.7-5,0.5-5.2,4.3c-0.2,3.5-0.6,7-1.1,10.4c-0.1,1.1-0.7,2.1-1.3,3
					c-3.1,4.6-2.6,8.9,1.7,12.2c1.6,1.2,2,2.8,1.1,4.1c-0.4,0.6-2.5,0.5-3.6,0c-2.2-1-3.1-0.4-3.6,1.8c-0.2,1.2-0.4,2.6-1.1,3.5
					c-0.9,1.1-2.5,2.7-3.6,2.6c-3.4-0.4-5.2,1.4-7,3.7c-4.9,6.1-11.1,10.4-18.4,13.2c-3.2,1.2-6,1.2-8.5-1.5
					c-0.8-0.8-2.3-1.1-3.4-1.6c-0.5,1.3-1.5,2.6-1.3,3.7c0.9,4.7,0.2,9.2-0.6,13.7c-0.4,2.4,0.4,3.9,3.2,3.3c2.5-0.5,4,0.9,4.8,3
					c0.5,1.3,1,2.7,1.2,4c0.6,3.5,2.1,6.4,4.6,8.8c2.5,2.3,2.7,5.3,1.6,8.4c-1,2.9-3.4,4.2-6.3,4.6c-1.8,0.3-3.6,0.2-5.4,0.3
					c-2.1,0.1-3.1,1.1-3,3.2c0.1,1.5,0.1,3,0,4.5c-0.1,2.3-1.2,3.8-3.7,3.6c-3-0.2-5,1.3-6.7,3.5c-1.9,2.6-3.8,5.2-5.6,7.8
					c-3.5,5.1-8.5,8.1-14.3,10.1c-7,2.4-13.9,5.4-20.8,8c-2.3,0.9-4.9,1.1-7.3,1.7c-2.7,0.7-5.6,1.1-8.1,2.2
					c-5.3,2.5-10.4,5.3-15.5,8.2c-3.4,1.9-6.9,2.9-10.8,2.3c-3.5-0.5-6.7,0.2-9.9,1.7c-7.2,3.5-15,3.3-22.8,2.6
					c-7.7-0.7-15.4-1.2-23.1-2.2c-2.6-0.3-5-1.9-7.4-2.9c-4.9-2-9.8-4.2-14.9-5.9c-1.2-0.4-3.2,0.4-4.5,1.1
					c-5.5,3.1-11,3.1-16.8,0.7c-6.2-2.6-12.6-4.4-18.8-6.9c-2.6-1-4.9-2.6-7.1-4.3c-1.7-1.3-3.2-2.5-5.5-2.2c-0.9,0.1-2-0.4-2.9-0.8
					c-1.3-0.6-2.4-1.7-3.7-2.1c-5.1-1.4-7.8-4.7-8.9-9.7c-0.2-1.2-1-2.3-1.6-3.3c-3.2-5.3-6.9-6.1-12.4-3.1
					c-2.7,1.5-5.5,2.9-8.3,4.1c-0.8,0.3-1.9,0-2.9-0.1c0.2-0.9,0.2-1.9,0.7-2.6c0.9-1.5,2.1-2.7,2.9-4.2c1.2-2.6,2.2-5.3,3.3-8
					c1-2.7,1.9-5.5,3.1-8.1c0.9-2,2-2,3.6-0.3c1.9,1.9,3.9,3.8,6.2,5.2c3.3,2,6.4,1.4,8.8-1.7c3.3-4.3,6.9-8.6,9.5-13.3
					c1.8-3.3,2-7.3,3-11c0.7-2.5,1.5-4.9,2.3-7.3c0.3-0.8,0.9-1.5,1.2-2.2c1.3-2.7,0.9-3.6-1.7-5c-1.8-1-3.8-1.8-5.3-3.2
					c-2.5-2.3-1.8-4.5,1.1-6.2c1.6-0.9,2.9-2.5,3.9-4.1c1.3-2.1,0.7-4-1.7-5c-2.5-1-3.4-2.6-3-5.3c0.2-1.2-0.1-2.7-0.7-3.8
					c-1.5-2.7-0.5-4.6,1.5-6.5c2.4-2.2,4.7-4.6,7-7c1.7-1.7,1.2-3-0.5-4.7c-1.9-1.9-3.6-4.3-4.7-6.8c-1.4-3.3-2.2-6.8-3.2-10.2
					c-0.8-2.7-0.2-4.9,1.3-7.4c5.1-8.4,8.5-17.6,10.5-27.3c1.2-6,2.4-12,3.8-18c1.7-7.1,6.8-11.8,12.2-16.2c2.2-1.8,4.8-3.1,6.7-5.2
					c1.7-1.9,3-4.4,3.9-6.9c0.6-1.6,1.2-2.5,2.8-2.5c3.9,0,7-2,9.9-4.4c4.1-3.4,8.5-5.4,14.3-4.3c5.8,1.2,11.2-1,16.3-4
					c4.4-2.6,6.8-5.9,7.9-10.7c0.9-3.8,0.5-7.3-1.1-11c-1.3-3.1-1.7-6.6-2-10c-0.2-2.3,1.3-3.9,3.7-4.4c3.9-0.7,6-3.6,8.1-6.6
					c0.9-1.3,0.8-2.5-0.6-3.3c-2.2-1.2-2.3-2.8-1-4.7c1.3-2,2.2-3.7-0.3-5.9c-0.8-0.7-0.4-3.6,0.4-4.9c3.6-6.4,7.1-12.9,11.4-18.8
					c4.8-6.5,10.5-12.3,15.8-18.4c1.2-1.3,1.2-2.2-0.1-3.6c-2.5-2.6-1.4-8.5,1.9-10c0.6-0.3,1.8,0.3,2.7,0.7
					c2.8,1.4,5.5,3.1,8.4,4.4c1.9,0.9,3.3,0.1,3.9-2.2c0.5-2.2,1.4-4.3,2.3-6.4c1.5-3.4,4.1-5.3,7.9-6.1c5.9-1.3,11.6-3.1,17.5-4.4
					c2.5-0.5,5.2-0.4,7.8-0.4c1.6,0,2.1,0.9,2,2.6c0,1.4,0.6,3,1.5,4.1c2.4,3.1,5.3,5.5,9.5,6.1c2.3,0.3,4.2,0.3,6-1.4
					c2.5-2.2,4.4-1.9,5.9,1c1.3,2.7,2.7,4.3,6,3.9c0.6-0.1,1.7,1.3,1.9,2.1c0.2,1.3,0,2.8-0.3,4.2c-2.2,9.1-0.2,18,2.6,26.3
					c2.1,6.4,7,11.9,10.9,17.6c0.9,1.2,2.9,1.7,4.4,2.5c2.4,1.1,3.8,2.9,4.2,5.6c0.7,4.5,1.5,4.4,5.8,5.3c5,1,9.8,2.9,14.7,4.6
					c0.9,0.3,1.6,1.3,2.2,2.1c2.8,4,5.2,8.3,6.5,13.1c0.2,0.9-0.2,2-0.6,2.9C339.8,125.5,337.4,128.5,332.5,129.1z"/>
			</g>
		</g>
	</g>
</g>
</svg>
