<?xml version="1.0" encoding="utf-8"?>
<!-- Generator: Adobe Illustrator 25.4.1, SVG Export Plug-In . SVG Version: 6.00 Build 0)  -->
<svg version="1.1" id="Layer_1" xmlns="http://www.w3.org/2000/svg" xmlns:xlink="http://www.w3.org/1999/xlink" x="0px" y="0px"
	 viewBox="0 0 620 420" style="enable-background:new 0 0 620 420;" xml:space="preserve">
<style type="text/css">
	.st0{fill:none;stroke:#A7A5AD;stroke-width:16.4561;stroke-linecap:round;stroke-linejoin:round;stroke-miterlimit:10;}
	.st1{fill:none;stroke:#E7B102;stroke-width:10.9707;stroke-linecap:round;stroke-linejoin:round;stroke-miterlimit:10;}
</style>
<circle class="st0" cx="310" cy="210.5" r="168.1"/>
<path class="st1" d="M293.8,229.1l12.8,21.3c3.8,6.3,13,6.4,16.8,0.1l19-31c7.6,7.4,17.3,12.5,28,14.6l10.1,2
	c14.7,2.9,25.3,15.8,25.3,30.8v24.3c0,8-5.6,15-13.4,16.7l0,0c-54.3,11.9-110.6,11.9-164.9,0l0,0c-7.8-1.7-13.4-8.7-13.4-16.7v-24.3
	c0-15,10.6-27.9,25.3-30.8l10.1-2c17.8-3.5,32.9-15.6,40.3-32.2l0,0c-14.4-11.7-23.9-34.2-23.9-55.1c0-30.2,4.9-54.6,45.5-54.6
	s45.5,24.5,45.5,54.6s-20.4,63.1-45.5,63.1c-3.1,0-6.2-0.5-9.2-1.5 M311.6,172.2v-25.3c0-2.4-2-4.4-4.4-4.4h-17.4"/>
<line class="st1" x1="314" y1="269.5" x2="314" y2="274.4"/>
<line class="st1" x1="314" y1="299.8" x2="314" y2="304.7"/>
</svg>
