<?xml version="1.0" encoding="utf-8"?>
<!-- Generator: Adobe Illustrator 25.4.1, SVG Export Plug-In . SVG Version: 6.00 Build 0)  -->
<svg version="1.1" id="Layer_1" xmlns="http://www.w3.org/2000/svg" xmlns:xlink="http://www.w3.org/1999/xlink" x="0px" y="0px"
	 viewBox="0 0 420 420" style="enable-background:new 0 0 420 420;" xml:space="preserve">
<style type="text/css">
	.st0{fill:none;stroke:#A7A5AD;stroke-width:12;stroke-linecap:round;stroke-linejoin:round;stroke-miterlimit:10;}
	.st1{fill:none;stroke:#A7A5AD;stroke-width:6;stroke-miterlimit:10;}
	.st2{fill:none;stroke:#A7A5AD;stroke-width:6;stroke-linecap:round;stroke-linejoin:round;stroke-miterlimit:10;}
	.st3{fill:none;stroke:#E7B102;stroke-width:12;stroke-linecap:round;stroke-linejoin:round;stroke-miterlimit:10;}
</style>
<g>
	<g>
		<g>
			<circle class="st0" cx="283.2" cy="103" r="30.1"/>
			<polyline class="st0" points="278.9,271.3 264.8,271.3 227.2,332.1 188.8,332.1 			"/>
			<path class="st0" d="M205.7,206l62.3-18.4l28.4-48.3c9.6-16.4,33.1-17.2,43.8-1.4l0,0c16.7,24.6,26.2,53.3,27.7,82.8"/>
			<circle class="st1" cx="345.9" cy="285.5" r="65.3"/>
			<polyline class="st2" points="394.7,152.6 376.3,162.6 376.3,227.2 			"/>
		</g>
		<g>
			<circle class="st3" cx="142.6" cy="104.5" r="32"/>
			<path class="st3" d="M204.1,222.2l-53-18.4l-14-31.4c-11.6-25.9-45.8-31.6-65.1-10.8l0,0c-19,20.5-31.2,46.3-34.9,74l0,0
				c-1.8,13.1,1.8,26.3,10,36.7l25.7,32.9L11.2,309v28.4"/>
			<path class="st3" d="M101.1,236l50.1,10.1c10.6,2.1,18,11.6,17.8,22.3l-1.8,66.7"/>
		</g>
	</g>
</g>
</svg>
