<?xml version="1.0" encoding="utf-8"?>
<!-- Generator: Adobe Illustrator 25.4.1, SVG Export Plug-In . SVG Version: 6.00 Build 0)  -->
<svg version="1.1" id="Layer_1" xmlns="http://www.w3.org/2000/svg" xmlns:xlink="http://www.w3.org/1999/xlink" x="0px" y="0px"
	 viewBox="0 0 420 420" style="enable-background:new 0 0 420 420;" xml:space="preserve">
<style type="text/css">
	.st0{fill:none;stroke:#A7A5AD;stroke-width:12;stroke-linecap:round;stroke-linejoin:round;stroke-miterlimit:10;}
	.st1{fill:none;stroke:#A7A5AD;stroke-width:7.8607;stroke-linecap:round;stroke-linejoin:round;stroke-miterlimit:10;}
	.st2{fill:none;stroke:#E7B102;stroke-width:12;stroke-linecap:round;stroke-linejoin:round;stroke-miterlimit:10;}
</style>
<g>
	<g>
		<g>
			<path class="st0" d="M31.9,238.9v-98.4c0-24,19.4-43.4,43.4-43.4h49.1c24,0,43.4,19.4,43.4,43.4v100.5"/>
			<g>
				<line class="st0" x1="57" y1="147.4" x2="66.6" y2="394"/>
				<line class="st0" x1="100.1" y1="229.9" x2="100.1" y2="394"/>
				<line class="st0" x1="140.5" y1="147.4" x2="135.8" y2="394"/>
			</g>
		</g>
		<circle class="st0" cx="99.8" cy="62.2" r="33.6"/>
	</g>
	<path class="st1" d="M153.1,255.8c0-8.1,6.6-14.7,14.7-14.7c8.1,0,14.7,6.6,14.7,14.7l0.3,138.2"/>
	<g>
		<circle class="st2" cx="261.4" cy="59.9" r="33.6"/>
		<path class="st2" d="M190.8,196.3l48.4-19.5c7-2.8,12.5-8.5,15.2-15.6l14.3-39c7.6-20.8,35.7-23.9,47.7-5.3l0,0
			c8.3,12.9,14.9,26.9,19.4,41.6l19,61.3c4.7,15,4.4,31.1-0.9,46l-12.9,36.5c-1.8,5.2-0.9,11,2.4,15.4l43.9,58.2L366.4,394"/>
		<path class="st2" d="M290.1,232.7L243,296c-2.1,2.8-3.3,6.3-3.3,9.8V394"/>
	</g>
</g>
</svg>
