<?xml version="1.0" encoding="utf-8"?>
<!-- Generator: Adobe Illustrator 25.4.1, SVG Export Plug-In . SVG Version: 6.00 Build 0)  -->
<svg version="1.1" id="Layer_1" xmlns="http://www.w3.org/2000/svg" xmlns:xlink="http://www.w3.org/1999/xlink" x="0px" y="0px"
	 viewBox="0 0 420 420" style="enable-background:new 0 0 420 420;" xml:space="preserve">
<style type="text/css">
	.st0{fill:none;stroke:#E7B102;stroke-width:12;stroke-linecap:round;stroke-linejoin:round;stroke-miterlimit:10;}
	.st1{fill:none;stroke:#A7A5AD;stroke-width:12;stroke-linecap:round;stroke-linejoin:round;stroke-miterlimit:10;}
</style>
<g>
	<g>
		<g>
			<path class="st0" d="M101.5,245.1v-99.8c0-24.3,19.7-44,44-44h49.8c24.3,0,44,19.7,44,44v34.9"/>
			<g>
				<line class="st0" x1="127" y1="152.2" x2="136.7" y2="402.4"/>
				<line class="st0" x1="170.8" y1="235.9" x2="170.8" y2="402.4"/>
				<line class="st0" x1="209.8" y1="253.3" x2="209.1" y2="293.9"/>
				<line class="st0" x1="211.8" y1="152.2" x2="210.9" y2="196"/>
			</g>
		</g>
		<circle class="st0" cx="170.5" cy="47" r="34.1"/>
	</g>
	<g>
		<circle class="st1" cx="267.3" cy="76.3" r="31.7"/>
		<path class="st1" d="M195,233.4l49.5-37.8c6.8-5.2,12-12.3,14.9-20.4l13.2-36.6c6.3-17.5,30.6-18.4,38.3-1.6l0,0
			c6,13.2,10.2,27.2,12.5,41.5l9.4,59.8c2.3,14.6-0.2,29.6-7.1,42.8l-17,32.3c-2.4,4.6-2.4,10.1,0.1,14.7l33.1,60.3l-22.2,14.1"/>
		<path class="st1" d="M270.6,258.8L218,311.5c-2.4,2.4-3.9,5.4-4.4,8.7l-12,82.2"/>
	</g>
	<line class="st0" x1="410.8" y1="233.1" x2="8.7" y2="233.1"/>
	<line class="st0" x1="383.1" y1="242.8" x2="383.1" y2="407.4"/>
	<line class="st0" x1="51.6" y1="242.8" x2="51.6" y2="407.4"/>
</g>
</svg>
