<?xml version="1.0" encoding="utf-8"?>
<!-- Generator: Adobe Illustrator 25.4.1, SVG Export Plug-In . SVG Version: 6.00 Build 0)  -->
<svg version="1.1" id="Layer_1" xmlns="http://www.w3.org/2000/svg" xmlns:xlink="http://www.w3.org/1999/xlink" x="0px" y="0px"
	 viewBox="0 0 420 420" style="enable-background:new 0 0 420 420;" xml:space="preserve">
<style type="text/css">
	.st0{fill:none;stroke:#FFFFFF;stroke-width:6;stroke-linecap:round;stroke-linejoin:round;stroke-miterlimit:10;}
	.st1{fill:none;stroke:#E7B102;stroke-width:12;stroke-linecap:round;stroke-linejoin:round;stroke-miterlimit:10;}
	.st2{fill:none;stroke:#A7A5AD;stroke-width:12;stroke-linecap:round;stroke-linejoin:round;stroke-miterlimit:10;}
</style>
<path class="st0" d="M238.6,387.1c70.8-10.5,128-62.8,145.7-131"/>
<path class="st0" d="M377.3,145.6C351.1,80.2,287.1,33.9,212.4,33.9c-98,0-177.5,79.5-177.5,177.5c0,74.1,45.3,137.5,109.8,164.1"/>
<path class="st1" d="M179.5,328.7c-18.2-1.5-36.3-4.2-54.2-8.1l0,0c-8.3-1.8-14.2-9.2-14.2-17.6v-25.7c0-15.8,11.2-29.5,26.8-32.5
	l10.7-2.1c18.8-3.7,34.8-16.5,42.5-34l0,0c-15.2-12.3-25.2-36.1-25.2-58.2c0-31.9,5.2-57.7,48.1-57.7s48.1,25.8,48.1,57.7
	s-21.5,66.6-48.1,66.6c-3.3,0-6.5-0.5-9.7-1.5 M195.3,237.5l22.3,37.2l29-47.4c4,3.9,8.6,7.2,13.5,9.8 M214,177.4v-26.7
	c0-2.6-2.1-4.6-4.6-4.6H191"/>
<g>
	
		<rect x="192.4" y="259.5" transform="matrix(0.7071 -0.7071 0.7071 0.7071 -116.9241 279.76)" class="st2" width="173.7" height="43"/>
	
		<rect x="334.4" y="182.9" transform="matrix(0.7071 -0.7071 0.7071 0.7071 -40.331 311.4822)" class="st2" width="42.9" height="43"/>
	<polygon class="st2" points="202.6,327.2 233,357.6 181.7,378.5 	"/>
</g>
</svg>
