<?xml version="1.0" encoding="utf-8"?>
<!-- Generator: Adobe Illustrator 25.4.1, SVG Export Plug-In . SVG Version: 6.00 Build 0)  -->
<svg version="1.1" id="Layer_1" xmlns="http://www.w3.org/2000/svg" xmlns:xlink="http://www.w3.org/1999/xlink" x="0px" y="0px"
	 viewBox="0 0 420 420" style="enable-background:new 0 0 420 420;" xml:space="preserve">
<style type="text/css">
	.st0{fill:none;stroke:#A7A5AD;stroke-width:12;stroke-linecap:round;stroke-linejoin:round;stroke-miterlimit:10;}
	.st1{fill:none;stroke:#E7B102;stroke-width:12;stroke-linecap:round;stroke-linejoin:round;stroke-miterlimit:10;}
</style>
<g>
	<g>
		<g>
			<path class="st0" d="M104.2,171.1h21.7c-1.6,3.7-2,7.8-1.2,12c2.3,10.9,13,17.9,23.9,15.6c10.9-2.3,17.9-13,15.6-23.9
				c-0.3-1.3-0.7-2.5-1.2-3.7h62.8c-0.5-1.2-0.9-2.4-1.2-3.7c-2.3-10.9,4.7-21.6,15.6-23.9c10.9-2.3,21.6,4.7,23.9,15.6
				c0.9,4.2,0.4,8.3-1.2,12h23.3"/>
		</g>
		<path class="st0" d="M194.4,82.4v20.1c-3.7-1.6-7.8-2-12-1.2c-10.9,2.3-17.9,13-15.6,23.9s13,17.9,23.9,15.6
			c1.3-0.3,2.5-0.7,3.7-1.2v62.8c1.2-0.5,2.4-0.9,3.7-1.2c10.9-2.3,21.6,4.7,23.9,15.6c2.3,10.9-4.7,21.6-15.6,23.9
			c-4.2,0.9-8.3,0.4-12-1.2v106.6"/>
	</g>
	<path class="st1" d="M118.1,210.2c-10-13.9-16-31-16.1-49.4c-0.5-50.8,43.8-89.8,94.5-86.6c54.2,3.5,91.6,40.6,91.6,85.8
		c0,12,17.9,37.5,26.6,46.3c8.8,8.8-21.7,20.3-21.7,20.3V264c0,11.4-9.3,20.7-20.7,20.7h-16.9c-14.6,0-26.1,12.2-25.3,26.8l2,34.1
		h-95.2l3-10c12.9-42.6,4.9-88.8-21.3-124.8C118.4,210.6,118.3,210.4,118.1,210.2z"/>
</g>
</svg>
