<?xml version="1.0" encoding="utf-8"?>
<!-- Generator: Adobe Illustrator 25.4.1, SVG Export Plug-In . SVG Version: 6.00 Build 0)  -->
<svg version="1.1" id="Layer_1" xmlns="http://www.w3.org/2000/svg" xmlns:xlink="http://www.w3.org/1999/xlink" x="0px" y="0px"
	 viewBox="0 0 620 420" style="enable-background:new 0 0 620 420;" xml:space="preserve">
<style type="text/css">
	
		.st0{clip-path:url(#SVGID_00000127034519331729649470000011188795988060878738_);fill:none;stroke:#E7B102;stroke-width:6;stroke-linecap:round;stroke-linejoin:round;stroke-miterlimit:10;}
	
		.st1{clip-path:url(#SVGID_00000132073276569239714450000003090676145164131462_);fill:none;stroke:#E7B102;stroke-width:6;stroke-linecap:round;stroke-linejoin:round;stroke-miterlimit:10;}
</style>
<g>
	<g>
		<defs>
			<ellipse id="SVGID_1_" cx="153.8" cy="210.1" rx="122.3" ry="122.4"/>
		</defs>
		<clipPath id="SVGID_00000005246624456957271440000007373889933208243634_">
			<use xlink:href="#SVGID_1_"  style="overflow:visible;"/>
		</clipPath>
		
			<path style="clip-path:url(#SVGID_00000005246624456957271440000007373889933208243634_);fill:none;stroke:#E7B102;stroke-width:6;stroke-linecap:round;stroke-linejoin:round;stroke-miterlimit:10;" d="
			M137.3,156.9c35.5,3.9,52.8,14.2,60.8,21.6c3.8,3.5,3.1,9.7-1.4,12.3h0v6.3c0,23.5-19.2,43.3-42.8,42.9
			c-22.8-0.4-41.1-19.1-41.1-42c0,0,17.7-11.1,21.1-26.1"/>
		
			<path style="clip-path:url(#SVGID_00000005246624456957271440000007373889933208243634_);fill:none;stroke:#E7B102;stroke-width:6;stroke-linecap:round;stroke-linejoin:round;stroke-miterlimit:10;" d="
			M194.8,264.7c17.4-2.9,29.5-22.2,29.5-22.2c-16.9-21.3-12.7-73.7-12.7-73.7c0-31.7-25.9-58.4-57.6-57.8
			c-30.7,0.6-55.4,25.7-55.4,56.5c0,0,0.6,66.7-13.4,76.9c0,0,16.9,17.9,28,19.8"/>
		
			<path style="clip-path:url(#SVGID_00000005246624456957271440000007373889933208243634_);fill:none;stroke:#E7B102;stroke-width:6;stroke-linecap:round;stroke-linejoin:round;stroke-miterlimit:10;" d="
			M133.9,238.6v1.8c0,7.3-3.8,14-10,17.9l-24.4,15.1c-9.3,5.7-15,15.9-15,26.8v19.6"/>
		
			<line style="clip-path:url(#SVGID_00000005246624456957271440000007373889933208243634_);fill:none;stroke:#E7B102;stroke-width:6;stroke-linecap:round;stroke-linejoin:round;stroke-miterlimit:10;" x1="114.6" y1="298" x2="114.6" y2="322.6"/>
		
			<path style="clip-path:url(#SVGID_00000005246624456957271440000007373889933208243634_);fill:none;stroke:#E7B102;stroke-width:6;stroke-linecap:round;stroke-linejoin:round;stroke-miterlimit:10;" d="
			M173.6,238.6v1.8c0,7.3,3.8,14,10,17.9l24.4,15.1c9.3,5.7,15,15.9,15,26.8v19.6"/>
		
			<line style="clip-path:url(#SVGID_00000005246624456957271440000007373889933208243634_);fill:none;stroke:#E7B102;stroke-width:6;stroke-linecap:round;stroke-linejoin:round;stroke-miterlimit:10;" x1="192.9" y1="298" x2="192.9" y2="322.6"/>
		
			<polyline style="clip-path:url(#SVGID_00000005246624456957271440000007373889933208243634_);fill:none;stroke:#E7B102;stroke-width:6;stroke-linecap:round;stroke-linejoin:round;stroke-miterlimit:10;" points="
			180.8,262.2 153.8,287.4 126.7,262.2 		"/>
		
			<use xlink:href="#SVGID_1_"  style="overflow:visible;fill:none;stroke:#A7A5AD;stroke-width:12;stroke-linecap:round;stroke-linejoin:round;stroke-miterlimit:10;"/>
	</g>
	<g>
		<defs>
			<ellipse id="SVGID_00000057146997114854213510000004163164292253515396_" cx="465.7" cy="210.1" rx="122.3" ry="122.4"/>
		</defs>
		<clipPath id="SVGID_00000158012265843748617060000004885949408974970251_">
			<use xlink:href="#SVGID_00000057146997114854213510000004163164292253515396_"  style="overflow:visible;"/>
		</clipPath>
		
			<path style="clip-path:url(#SVGID_00000158012265843748617060000004885949408974970251_);fill:none;stroke:#E7B102;stroke-width:6;stroke-linecap:round;stroke-linejoin:round;stroke-miterlimit:10;" d="
			M432.6,138c0,21.4-2.8,24.7-5.6,28.2c-6.9,8.8-5.3,1.2-9,1.2c-5.5,0-9.9,4.8-9.9,10.6c0,5.9,4.4,10.6,9.9,10.6
			c1.9,0,3.7-0.6,5.2-1.6c6.6,23.3,25.2,39,43.9,39c18.8,0,37.4-15.7,43.9-39c1.5,1,3.3,1.6,5.2,1.6c5.5,0,9.9-4.8,9.9-10.6
			c0-5.9-4.4-10.6-9.9-10.6c-3.8,0-4,8.8-9-1.2c-2.3-4.5,4.7-14.3-9.3-35.7c0,0-34.5,34.6-81.2-6.9c0,0,48.6-39,85.3-6.1"/>
		
			<path style="clip-path:url(#SVGID_00000158012265843748617060000004885949408974970251_);fill:none;stroke:#E7B102;stroke-width:6;stroke-linecap:round;stroke-linejoin:round;stroke-miterlimit:10;" d="
			M500.8,110c0,0,21.9-4.5,20.9,15.1c-1,19.7-1,39.6-1,39.6"/>
		
			<path style="clip-path:url(#SVGID_00000158012265843748617060000004885949408974970251_);fill:none;stroke:#E7B102;stroke-width:6;stroke-linecap:round;stroke-linejoin:round;stroke-miterlimit:10;" d="
			M420.3,131.6c0,0-7.7,4.8-7.7,18s0,13.2,0,13.2"/>
		
			<path style="clip-path:url(#SVGID_00000158012265843748617060000004885949408974970251_);fill:none;stroke:#E7B102;stroke-width:6;stroke-linecap:round;stroke-linejoin:round;stroke-miterlimit:10;" d="
			M420.2,249.3L420.2,249.3c-19.8,0-35.9,16.1-35.9,35.9v34.4"/>
		
			<path style="clip-path:url(#SVGID_00000158012265843748617060000004885949408974970251_);fill:none;stroke:#E7B102;stroke-width:6;stroke-linecap:round;stroke-linejoin:round;stroke-miterlimit:10;" d="
			M490.3,221.4v14l19.4,8.5l-10.5,13l13.4,12L466.2,329l19.6-75.7c0,0-7.7,10.5-19.6,10.5c-12,0-19.6-10.5-19.6-10.5l19.6,75.7
			l-46.5-60.3l13.4-12l-10.5-13l19.4-8.5v-14"/>
		
			<path style="clip-path:url(#SVGID_00000158012265843748617060000004885949408974970251_);fill:none;stroke:#E7B102;stroke-width:6;stroke-linecap:round;stroke-linejoin:round;stroke-miterlimit:10;" d="
			M512.2,249.3L512.2,249.3c19.8,0,35.9,16.1,35.9,35.9v34.4"/>
		
			<use xlink:href="#SVGID_00000057146997114854213510000004163164292253515396_"  style="overflow:visible;fill:none;stroke:#A7A5AD;stroke-width:12;stroke-linecap:round;stroke-linejoin:round;stroke-miterlimit:10;"/>
	</g>
</g>
</svg>
