<?xml version="1.0" encoding="utf-8"?>
<!-- Generator: Adobe Illustrator 25.4.1, SVG Export Plug-In . SVG Version: 6.00 Build 0)  -->
<svg version="1.1" id="Layer_1" xmlns="http://www.w3.org/2000/svg" xmlns:xlink="http://www.w3.org/1999/xlink" x="0px" y="0px"
	 viewBox="0 0 420 420" style="enable-background:new 0 0 420 420;" xml:space="preserve">
<style type="text/css">
	.st0{fill:none;stroke:#E7B102;stroke-width:12;stroke-linecap:round;stroke-linejoin:round;stroke-miterlimit:10;}
	.st1{fill:none;stroke:#E7B102;stroke-width:6;stroke-linecap:round;stroke-linejoin:round;stroke-miterlimit:10;}
	.st2{fill:none;stroke:#A7A5AD;stroke-width:12;stroke-linecap:round;stroke-linejoin:round;stroke-miterlimit:10;}
</style>
<g>
	<path class="st0" d="M130.6,249.6c-33-33-33-86.6,0-119.6s86.6-33,119.6,0"/>
	<line class="st0" x1="190.4" y1="49.7" x2="190.4" y2="10.6"/>
	<line class="st0" x1="11.2" y1="189.8" x2="50.3" y2="189.8"/>
	<line class="st0" x1="289.4" y1="90.7" x2="317.1" y2="63.1"/>
	<line class="st0" x1="63.7" y1="316.5" x2="91.3" y2="288.9"/>
	<line class="st0" x1="63.7" y1="63.1" x2="91.3" y2="90.7"/>
	<line class="st1" x1="23.7" y1="412.7" x2="411.2" y2="25.1"/>
	<g>
		<path class="st2" d="M342,211.7c-9.2-9.2-20-15.8-31.5-19.9c23.1,33,19.9,78.8-9.6,108.2c-23.8,23.8-58.4,30.5-88.2,19.9
			c2.8,4,6,7.8,9.6,11.4c33,33,86.6,33,119.6,0C375,298.3,375,244.7,342,211.7z"/>
	</g>
</g>
</svg>
