<?xml version="1.0" encoding="utf-8"?>
<!-- Generator: Adobe Illustrator 25.4.1, SVG Export Plug-In . SVG Version: 6.00 Build 0)  -->
<svg version="1.1" id="Layer_1" xmlns="http://www.w3.org/2000/svg" xmlns:xlink="http://www.w3.org/1999/xlink" x="0px" y="0px"
	 viewBox="0 0 597.1 420" style="enable-background:new 0 0 597.1 420;" xml:space="preserve">
<style type="text/css">
	.st0{fill:none;stroke:#A7A5AD;stroke-width:12;stroke-linecap:round;stroke-linejoin:round;stroke-miterlimit:10;}
	.st1{fill:none;stroke:#E7B102;stroke-width:12;stroke-linecap:round;stroke-linejoin:round;stroke-miterlimit:10;}
</style>
<g>
	<g>
		<line class="st0" x1="98.9" y1="233.7" x2="98.9" y2="336.8"/>
		<polyline class="st0" points="560.3,207.4 298.3,63.8 36.3,207.4 		"/>
		<line class="st0" x1="497.7" y1="233.7" x2="497.7" y2="336.8"/>
	</g>
	<g>
		<rect x="139.7" y="211.3" class="st1" width="47.1" height="120.6"/>
		<path class="st1" d="M202.5,222h49.8c10.8,0,21.3,3.4,30,9.6l10.1,7.2c8.8,6.2,19.3,9.6,30,9.6h18.1c8.5,0,15.3,6.9,15.3,15.3v0
			c0,8.5-6.9,15.3-15.3,15.3h-39.2c-5.7,0-10.3,4.6-10.3,10.3v0c0,5.7,4.6,10.3,10.3,10.3h0c14.2,0,28.1-4.1,40.1-11.8l77.2-49.8
			c11.3-7.3,26.3-3.5,32.9,8.2l0,0c6,10.7,2.6,24.3-7.7,31l-102.7,65.9c-24.9,16-56.3,17.6-82.8,4.4l-55.8-27.9V222z"/>
	</g>
</g>
</svg>
