<?xml version="1.0" encoding="utf-8"?>
<!-- Generator: Adobe Illustrator 25.4.1, SVG Export Plug-In . SVG Version: 6.00 Build 0)  -->
<svg version="1.1" id="Layer_1" xmlns="http://www.w3.org/2000/svg" xmlns:xlink="http://www.w3.org/1999/xlink" x="0px" y="0px"
	 viewBox="0 0 400 150" style="enable-background:new 0 0 400 150;" xml:space="preserve">
<style type="text/css">
	.st0{fill:#2FACB8;}
	.st1{fill:#FFFFFF;}
	.st2{fill:none;stroke:#FFFFFF;stroke-width:1.9208;stroke-linecap:round;stroke-linejoin:round;stroke-miterlimit:10;}
</style>
<g>
	<g>
		<path class="st0" d="M311.8,123.7H88.2c-26.9,0-48.7-21.8-48.7-48.7v0c0-26.9,21.8-48.7,48.7-48.7h223.6
			c26.9,0,48.7,21.8,48.7,48.7v0C360.6,101.9,338.7,123.7,311.8,123.7z"/>
		<g>
			<path class="st1" d="M110.6,53.5h4.5v36.6h-4.5V53.5z"/>
			<path class="st1" d="M145.4,77.5c0,9.2-6.4,13.3-12.4,13.3c-6.8,0-12-5-12-12.8c0-8.4,5.5-13.3,12.4-13.3
				C140.6,64.6,145.4,69.8,145.4,77.5z M125.6,77.7c0,5.5,3.1,9.6,7.6,9.6c4.3,0,7.6-4.1,7.6-9.7c0-4.2-2.1-9.6-7.5-9.6
				C127.9,68,125.6,73,125.6,77.7z"/>
			<path class="st1" d="M172.7,65.2c-0.1,1.8-0.2,3.8-0.2,6.9v14.5c0,5.7-1.1,9.2-3.6,11.4c-2.4,2.3-5.9,3-9.1,3
				c-3,0-6.3-0.7-8.3-2.1l1.1-3.5c1.7,1,4.2,2,7.3,2c4.6,0,8-2.4,8-8.7v-2.8h-0.1c-1.4,2.3-4.1,4.2-7.9,4.2
				c-6.2,0-10.6-5.3-10.6-12.2c0-8.5,5.5-13.3,11.2-13.3c4.3,0,6.7,2.3,7.8,4.3h0.1l0.2-3.8H172.7z M168,75c0-0.8-0.1-1.4-0.3-2.1
				c-0.8-2.6-3-4.8-6.3-4.8c-4.3,0-7.4,3.7-7.4,9.4c0,4.9,2.5,9,7.4,9c2.8,0,5.3-1.8,6.3-4.6c0.3-0.8,0.4-1.7,0.4-2.4V75z"/>
			<path class="st1" d="M196,58.2c0.1,1.5-1.1,2.8-2.9,2.8c-1.6,0-2.7-1.2-2.7-2.8c0-1.6,1.2-2.8,2.8-2.8
				C194.9,55.3,196,56.6,196,58.2z M190.9,90.1v-25h4.5v25H190.9z"/>
			<path class="st1" d="M203,71.9c0-2.6-0.1-4.7-0.2-6.8h4l0.3,4.1h0.1c1.2-2.4,4.1-4.7,8.3-4.7c3.5,0,8.8,2.1,8.8,10.6v14.9h-4.5
				V75.7c0-4-1.5-7.4-5.8-7.4c-3,0-5.3,2.1-6.1,4.6c-0.2,0.6-0.3,1.3-0.3,2.1v15H203V71.9z"/>
		</g>
	</g>
	<path class="st2" d="M281.3,83.8v7.7c0,4,3.2,7.2,7.2,7.2h34.7c4,0,7.2-3.2,7.2-7.2V56.7c0-4-3.2-7.2-7.2-7.2h-34.7
		c-4,0-7.2,3.2-7.2,7.2v9.6"/>
	<path class="st1" d="M315.9,73.4l-8.7-6.5c-0.8-0.6-1.9,0.3-1.5,1.2l1,2.2c0.3,0.6-0.2,1.4-0.9,1.4h-27.9c-0.5,0-1,0.4-1,1v3.1
		c0,0.5,0.4,1,1,1h27.7c0.7,0,1.2,0.7,0.9,1.3l-1,2.4c-0.4,0.9,0.7,1.7,1.5,1.1l8.9-6.6C316.4,74.6,316.4,73.8,315.9,73.4z"/>
	<line class="st2" x1="279.7" y1="79.3" x2="300.9" y2="79.3"/>
</g>
</svg>
