<?xml version="1.0" encoding="utf-8"?>
<!-- Generator: Adobe Illustrator 25.4.1, SVG Export Plug-In . SVG Version: 6.00 Build 0)  -->
<svg version="1.1" id="Layer_1" xmlns="http://www.w3.org/2000/svg" xmlns:xlink="http://www.w3.org/1999/xlink" x="0px" y="0px"
	 viewBox="0 0 474.3 262.9" style="enable-background:new 0 0 474.3 262.9;" xml:space="preserve">
<style type="text/css">
	.st0{fill:#A7A5AD;}
	.st1{fill:#E7B102;}
</style>
<g>
	<g>
		<path class="st0" d="M27.6,216.1c-11.4-13.2-17.1-29-17.1-47.6c0-18.2,5.7-33.8,17.1-46.8c11.4-13,25.3-19.5,41.5-19.5
			c13.4,0,24.8,4,34.3,11.9c9.5,8.1,14.2,17.8,14.2,29H106c0-8.1-3.6-15.1-10.7-20.9c-7.2-5.8-15.9-8.7-26.1-8.7
			c-13,0-24.1,5.3-33.4,16c-9.1,10.8-13.6,23.8-13.6,38.9c0,15.5,4.5,28.8,13.6,39.8c9.3,11,20.4,16.6,33.4,16.6
			c10.1,0,18.6-3,25.6-9c7.2-6,10.7-13.2,10.7-21.5h12.2c0,11.4-4.7,21.2-14.2,29.3c-9.5,8.1-20.9,12.2-34.3,12.2
			C52.9,235.8,39,229.2,27.6,216.1z"/>
		<path class="st0" d="M145.8,224.5c-8.7-7-13.1-15.3-13.1-25c0-9.3,4.3-17.4,12.8-24.4c8.3-7,18.8-11,31.4-12.2
			c12.2-1.2,22.2-3.1,29.9-5.8c7.9-2.7,11.9-5.9,11.9-9.6v-11c0-6.4-3.5-11.8-10.5-16.3c-6.8-4.5-15.1-6.7-25-6.7
			c-9.3,0-17.3,2.1-24.1,6.4c-6.6,4.5-9.9,9.7-9.9,15.7v6.4h-11v-7.6c0-8.3,4.4-15.4,13.1-21.2c8.9-5.8,19.6-8.7,32-8.7
			c12.8,0,23.7,2.8,32.8,8.4c9.1,5.6,13.6,12.4,13.6,20.3v74.9c0,4.8,1.1,9,3.2,12.5c2.1,3.5,4.7,5.2,7.8,5.2c1,0,1.8-0.1,2.6-0.3
			c0.8-0.2,1.4-0.5,1.7-0.9v5.5c-2.9,1.4-6.6,2-11,2c-4.5,0-8.3-1.9-11.6-5.8c-3.1-3.9-4.6-8.5-4.6-13.9c-2.3,6.6-7.3,11.9-14.8,16
			c-7.6,4.1-16.3,6.1-26.1,6.1C164.7,234.7,154.3,231.3,145.8,224.5z M204.2,215.8c7.9-6.6,12.8-15,14.5-25.3V162
			c-2.7,2.3-7.7,4.3-14.8,5.8c-6.8,1.6-15.8,2.8-27,3.8c-9.1,0.8-16.7,3.9-22.9,9.3c-6.2,5.2-9.3,11.4-9.3,18.6
			c0,7.4,3.2,13.6,9.6,18.6c6.2,5.2,13.7,7.8,22.7,7.8C187.1,225.9,196.2,222.6,204.2,215.8z"/>
		<path class="st0" d="M368,216.6c-10.1-12.2-15.1-28.3-15.1-48.2c0-19.9,5-36,15.1-48.2c10.1-12,23.4-18,40.1-18
			c16.7,0,30,5.5,40.1,16.6c10.1,11,15.1,25.8,15.1,44.1v5.5h-98.8c0,16.8,4,30.3,11.9,40.4c7.9,10.1,18.5,15.1,31.7,15.1
			c9.9,0,18.8-2.6,26.7-7.8c8.1-5.4,13.7-12.5,16.8-21.2h11.6c-1.9,11.4-8.1,20.9-18.6,28.5c-10.5,7.6-22.7,11.3-36.6,11.3
			C391.4,234.7,378.1,228.7,368,216.6z M451.6,157.4V153c-1-11.4-5.6-21.1-13.9-29c-8.5-7.7-18.4-11.6-29.6-11.6
			c-11.2,0-21,4-29.3,11.9c-8.5,8.1-13.3,18.1-14.2,29.9v3.2H451.6z"/>
	</g>
	<g>
		<path class="st1" d="M18.5,71.1v-43h6.6l0,4.5c1.2-2,2.9-3.5,5.2-4.6c2.1-0.9,4.5-1.4,7.1-1.4c4.6,0,8.5,1.7,11.8,5.1
			c3.2,3.3,4.9,7.3,4.9,12v27.4h-6.6V43.8c0-3-1.1-5.5-3.2-7.6C42,34.1,39.4,33,36.3,33s-5.7,1-7.9,3.1c-2.2,2.1-3.3,4.6-3.3,7.6
			v27.4H18.5z"/>
		<path class="st1" d="M60.9,48.9c0-7,1.7-12.5,5.1-16.7S73.8,26,79.4,26c5.6,0,10.1,2.1,13.4,6.2s5.1,9.7,5.1,16.7v2.2H67.5
			c0,4.5,1.1,8,3.2,10.7c2.2,2.7,5.1,4.1,8.7,4.1c3.1,0,5.7-0.8,7.7-2.4c2-1.6,3.2-3.7,3.4-6.4h6.6c-0.4,4.5-2.2,8.1-5.5,10.7
			c-3.2,2.7-7.3,4-12.3,4c-5.6,0-10.1-2.1-13.4-6.2C62.6,61.4,60.9,55.9,60.9,48.9z M67.5,45.2h23.7c-0.3-4-1.6-7.2-3.7-9.6
			c-2.1-2.4-4.8-3.6-8.1-3.6c-3.2,0-5.9,1.2-8.1,3.6C69.1,38,67.8,41.2,67.5,45.2z"/>
		<path class="st1" d="M102.3,59.3c0-3.8,1.7-6.9,5.2-9.4c3.1-2.2,7-3.5,11.5-3.9c3.2-0.3,5.6-0.7,7.2-1.5c2.3-0.9,3.4-2.4,3.4-4.5
			c0-2.3-0.9-4.2-2.6-5.8c-1.8-1.6-3.8-2.3-6.2-2.3c-2.5,0-4.7,0.7-6.6,2.2c-1.9,1.6-2.9,3.5-2.9,5.8v1.5h-6.7v-2.9
			c0-3.8,1.7-6.9,5.1-9.3c3.1-2.2,6.8-3.3,11.2-3.3c4.1,0,7.7,1.1,10.8,3.4c3.2,2.4,4.8,5.5,4.8,9.2v22.2c0,1.2,0.5,2.3,1.4,3.1
			c0.8,0.8,1.9,1.3,3.1,1.3v5.9h-2.6c-1.7,0-3.3-0.5-4.7-1.4c-1.4-1-2.4-2.2-3-3.8c-1.4,2-3.3,3.5-5.7,4.5c-2.3,0.9-4.8,1.4-7.5,1.4
			c-4.5,0-8.1-1.1-10.7-3.4C103.7,66.1,102.3,63.1,102.3,59.3z M108.9,59.3c0,1.9,0.8,3.4,2.5,4.7c1.6,1.1,3.4,1.7,5.7,1.7
			c3.4,0,6.3-1,8.7-3c2.5-2,3.8-4.6,3.8-7.7l-0.1-5.9c-1.8,1.5-5.1,2.4-9.9,2.8l-1.8,0.1c-2.4,0.2-4.4,0.9-6.1,2.2
			C109.8,55.5,108.9,57.2,108.9,59.3z"/>
		<path class="st1" d="M147,71.1V27.5h6.6v7.7c1-2.7,2.7-4.7,5.3-6.2c2.4-1.5,5.1-2.2,8.1-2.2h2.9v6.6H167c-3.8,0-7,1.5-9.6,4.5
			c-2.5,2.9-3.8,6.3-3.8,10.4v23H147z"/>
		<path class="st1" d="M175.7,71.1V11.9h6.6l0,21.8c1.2-2.1,2.9-3.8,5.1-5.1c2.1-1.3,4.3-1.9,6.8-1.9c5.4,0,9.8,2.3,13.4,6.8
			c3.4,4.3,5.1,9.4,5.1,15.4c0,6.1-1.7,11.4-5,15.9c-3.6,4.7-8.1,7-13.5,7c-2.4,0-4.7-0.7-6.9-2.2c-2-1.4-3.7-3.2-5-5.5v7H175.7z
			 M182.3,48.9c0,4.5,1,8.3,3,11.4c2.2,3.5,5.2,5.3,8.9,5.3c3.7,0,6.7-1.8,8.9-5.3c1.9-3.1,2.9-6.9,2.9-11.4c0-4.4-1-8.1-3-11.2
			c-2.2-3.4-5.1-5.1-8.8-5.1c-3.6,0-6.6,1.7-8.9,5.1C183.3,40.8,182.3,44.6,182.3,48.9z"/>
		<path class="st1" d="M215.9,27.5h6.6l14.5,35.2l13-35.2h6.6l-19.3,51.1c-0.8,2.3-2.4,4.2-4.6,5.5c-2.1,1.3-4.5,1.9-7.2,1.9h-4.5
			V80h4.5c2,0,3.8-0.9,5.3-2.7c1.3-1.6,2.3-3.6,2.9-6.1L215.9,27.5z"/>
	</g>
</g>
<g>
	<path class="st1" d="M267.8,146.3c0-16.9,13.7-30.6,30.6-30.6s30.6,13.7,30.6,30.6c0,4.3,3.5,7.8,7.8,7.8s7.8-3.5,7.8-7.8
		c0-25.5-20.7-46.2-46.2-46.2s-46.2,20.7-46.2,46.2v100.3h15.6V146.3z"/>
</g>
</svg>
