<?xml version="1.0" encoding="utf-8"?>
<!-- Generator: Adobe Illustrator 25.4.1, SVG Export Plug-In . SVG Version: 6.00 Build 0)  -->
<svg version="1.1" id="Layer_1" xmlns="http://www.w3.org/2000/svg" xmlns:xlink="http://www.w3.org/1999/xlink" x="0px" y="0px"
	 viewBox="0 0 220 305" style="enable-background:new 0 0 220 305;" xml:space="preserve">
<style type="text/css">
	.st0{fill:#A7A5AD;}
	.st1{clip-path:url(#SVGID_00000032622312204139353620000005182054887843165621_);}
	.st2{fill:none;stroke:#A7A5AD;stroke-width:7.3581;stroke-linecap:round;stroke-linejoin:round;stroke-miterlimit:10;}
	.st3{fill:none;stroke:#A7A5AD;stroke-width:4.4888;stroke-linecap:round;stroke-linejoin:round;stroke-miterlimit:10;}
	.st4{fill:none;stroke:#A7A5AD;stroke-width:3.6791;stroke-linecap:round;stroke-linejoin:round;stroke-miterlimit:10;}
</style>
<g>
	<path class="st0" d="M218.7,110.3C218.7,204,110,303.4,110,303.4S1.3,206.3,1.3,110.3C1.3,50.3,50,1.6,110,1.6
		S218.7,50.3,218.7,110.3z"/>
	<g>
		<defs>
			<circle id="SVGID_1_" cx="110" cy="110.3" r="87"/>
		</defs>
		<use xlink:href="#SVGID_1_"  style="overflow:visible;fill:#FFFFFF;"/>
		<clipPath id="SVGID_00000062871940005296845840000010197732746061979313_">
			<use xlink:href="#SVGID_1_"  style="overflow:visible;"/>
		</clipPath>
		<g style="clip-path:url(#SVGID_00000062871940005296845840000010197732746061979313_);">
			<g>
				<circle class="st2" cx="109.4" cy="65.7" r="19.7"/>
				<g>
					<polyline class="st2" points="87.1,235.1 85.6,168.3 91.5,163.8 					"/>
					<line class="st2" x1="86.5" y1="116.9" x2="86.9" y2="151.7"/>
					<line class="st2" x1="127.8" y1="116.9" x2="127.9" y2="151.7"/>
				</g>
				<path class="st2" d="M76.3,161.4l-4.4-8.7c-6.8-13.3-7.6-28.9-2.1-42.9l0,0c3.9-10.1,13.6-16.7,24.4-16.7h28.3
					c10.8,0,20.5,6.6,24.4,16.7l0.2,0.4c5.4,13.7,4.7,29-1.8,42.2l-4.9,9.9"/>
			</g>
			<path class="st3" d="M140.9,171.5c0.7,7,1.2,15.7,1.2,25.1c0,23.3-2.7,42.1-6,42.1c-3.3,0-6-18.9-6-42.1s2.7-42.1,6-42.1"/>
			<path class="st4" d="M79.7,238.8c-3.3,0-6-18.9-6-42.1c0-10.2,0.5-19.5,1.4-26.8"/>
			<polyline class="st2" points="122.6,163.8 116.6,168.3 116.3,235.1 			"/>
			<polyline class="st2" points="107.3,164.2 101.3,168.7 101.3,235.1 			"/>
		</g>
	</g>
</g>
</svg>
