<?xml version="1.0" encoding="utf-8"?>
<!-- Generator: Adobe Illustrator 25.4.1, SVG Export Plug-In . SVG Version: 6.00 Build 0)  -->
<svg version="1.1" id="Layer_1" xmlns="http://www.w3.org/2000/svg" xmlns:xlink="http://www.w3.org/1999/xlink" x="0px" y="0px"
	 viewBox="0 0 400 150" style="enable-background:new 0 0 400 150;" xml:space="preserve">
<style type="text/css">
	.st0{fill:#2FACB8;}
	.st1{enable-background:new    ;}
	.st2{fill:#FFFFFF;}
	.st3{fill:none;stroke:#FFFFFF;stroke-width:2.6751;stroke-linecap:round;stroke-miterlimit:10;}
</style>
<g>
	<g>
		<path class="st0" d="M311.8,123.7H88.2c-26.9,0-48.7-21.8-48.7-48.7l0,0c0-26.9,21.8-48.7,48.7-48.7h223.6
			c26.9,0,48.7,21.8,48.7,48.7l0,0C360.6,101.8,338.7,123.7,311.8,123.7z"/>
		<g class="st1">
			<path class="st2" d="M83.8,82.1l4.5-0.7c0.3,1.8,1,3.2,2.1,4.1c1.2,1,2.8,1.4,4.8,1.4c2.1,0,3.6-0.4,4.6-1.3c1-0.8,1.5-1.8,1.5-3
				c0-1-0.4-1.8-1.3-2.4c-0.6-0.4-2.2-0.9-4.6-1.5c-3.3-0.8-5.6-1.6-6.9-2.2c-1.3-0.6-2.3-1.5-2.9-2.5c-0.7-1.1-1-2.3-1-3.6
				c0-1.2,0.3-2.3,0.8-3.3c0.5-1,1.3-1.9,2.2-2.5c0.7-0.5,1.7-1,2.9-1.3c1.2-0.4,2.5-0.5,3.9-0.5c2.1,0,3.9,0.3,5.5,0.9
				c1.6,0.6,2.8,1.4,3.5,2.5s1.3,2.4,1.6,4.1l-4.4,0.6c-0.2-1.4-0.8-2.5-1.8-3.2c-1-0.8-2.3-1.2-4.1-1.2c-2.1,0-3.6,0.3-4.5,1
				S89,69,89,69.9c0,0.6,0.2,1.1,0.6,1.6c0.4,0.5,0.9,0.9,1.7,1.2c0.5,0.2,1.8,0.6,4,1.2c3.2,0.9,5.4,1.6,6.7,2.1s2.3,1.3,3,2.4
				c0.7,1,1.1,2.3,1.1,3.9c0,1.5-0.4,2.9-1.3,4.3s-2.2,2.4-3.8,3.1c-1.7,0.7-3.5,1.1-5.6,1.1c-3.5,0-6.1-0.7-7.9-2.2
				S84.3,84.9,83.8,82.1z"/>
			<path class="st2" d="M111.5,58.4v-5.2h4.5v5.2H111.5z M111.5,90.1V63.3h4.5v26.8H111.5z"/>
			<path class="st2" d="M122.1,92.3l4.4,0.7c0.2,1.4,0.7,2.4,1.5,3c1.1,0.8,2.7,1.3,4.6,1.3c2.1,0,3.7-0.4,4.9-1.3s1.9-2,2.3-3.5
				c0.2-0.9,0.3-2.9,0.3-5.8c-2,2.3-4.5,3.5-7.4,3.5c-3.7,0-6.5-1.3-8.5-4c-2-2.7-3-5.8-3-9.5c0-2.6,0.5-4.9,1.4-7.1
				c0.9-2.2,2.3-3.8,4-5s3.8-1.8,6.2-1.8c3.2,0,5.8,1.3,7.8,3.8v-3.2h4.2v23.1c0,4.2-0.4,7.1-1.3,8.9s-2.2,3.1-4,4.1
				s-4.1,1.5-6.8,1.5c-3.2,0-5.8-0.7-7.7-2.2C123,97.3,122,95.2,122.1,92.3z M125.8,76.2c0,3.5,0.7,6.1,2.1,7.7
				c1.4,1.6,3.1,2.4,5.2,2.4c2.1,0,3.8-0.8,5.2-2.4c1.4-1.6,2.1-4.1,2.1-7.5c0-3.3-0.7-5.7-2.2-7.4c-1.5-1.7-3.2-2.5-5.3-2.5
				c-2,0-3.7,0.8-5.1,2.5S125.8,73,125.8,76.2z"/>
			<path class="st2" d="M151.6,90.1V63.3h4.1v3.8c2-2.9,4.8-4.4,8.5-4.4c1.6,0,3.1,0.3,4.4,0.9c1.4,0.6,2.4,1.3,3,2.3
				c0.7,0.9,1.1,2.1,1.4,3.4c0.2,0.8,0.3,2.3,0.3,4.4v16.5h-4.5V73.8c0-1.8-0.2-3.2-0.5-4.1c-0.4-0.9-1-1.6-1.9-2.2s-2-0.8-3.2-0.8
				c-1.9,0-3.6,0.6-5,1.8s-2.1,3.6-2.1,7v14.6H151.6z"/>
			<path class="st2" d="M212.2,90.1v-3.9c-2.1,3-4.9,4.5-8.5,4.5c-1.6,0-3.1-0.3-4.4-0.9c-1.4-0.6-2.4-1.4-3-2.3
				c-0.7-0.9-1.1-2-1.4-3.4c-0.2-0.9-0.3-2.3-0.3-4.2V63.3h4.5v14.8c0,2.4,0.1,4,0.3,4.8c0.3,1.2,0.9,2.1,1.8,2.8
				c0.9,0.7,2.1,1,3.4,1s2.6-0.3,3.8-1c1.2-0.7,2-1.6,2.5-2.8c0.5-1.2,0.7-2.9,0.7-5.2V63.3h4.5v26.8H212.2z"/>
			<path class="st2" d="M223.3,100.3v-37h4.1v3.5c1-1.4,2.1-2.4,3.3-3.1c1.2-0.7,2.7-1,4.5-1c2.3,0,4.3,0.6,6,1.8
				c1.7,1.2,3.1,2.8,4,5c0.9,2.1,1.3,4.5,1.3,7c0,2.7-0.5,5.2-1.5,7.4c-1,2.2-2.4,3.9-4.3,5s-3.8,1.8-5.9,1.8c-1.5,0-2.9-0.3-4.1-1
				c-1.2-0.6-2.2-1.4-3-2.4v13H223.3z M227.4,76.8c0,3.4,0.7,6,2.1,7.6c1.4,1.6,3.1,2.5,5.1,2.5c2,0,3.7-0.9,5.2-2.6
				c1.4-1.7,2.2-4.3,2.2-7.9c0-3.4-0.7-6-2.1-7.7s-3.1-2.5-5-2.5c-1.9,0-3.6,0.9-5.1,2.7S227.4,73.4,227.4,76.8z"/>
		</g>
	</g>
	<g>
		<path class="st2" d="M293.6,78c0.1-0.3,0.2-0.6,0.5-0.8l25.1-25.1l7.9-7.9c0.7-0.7,1.9-0.7,2.6,0l3.2,3.2l3.2,3.2
			c0.7,0.7,0.7,1.9,0,2.6l-7.9,7.9l-25.1,25.1c-0.2,0.2-0.5,0.4-0.8,0.5l-8.8,2.3c-1.4,0.4-2.6-0.9-2.3-2.3L293.6,78z"/>
	</g>
	<path class="st3" d="M313.9,49.5h-27.3c-2.9,0-5.3,2.4-5.3,5.3v38.5c0,2.9,2.4,5.3,5.3,5.3h36.7c3.9,0,7.1-3.2,7.1-7.1V66"/>
</g>
</svg>
